<svg xmlns="http://www.w3.org/2000/svg" width="1440" height="900"><path d="M786,497L746,400L701,471Z" fill="#5188b2" stroke="#5188b2" stroke-width="1.51"/><path d="M746,400L706,414L701,471Z" fill="#4f8dbb" stroke="#4f8dbb" stroke-width="1.51"/><path d="M904,416L788,331L746,400Z" fill="#608db3" stroke="#608db3" stroke-width="1.51"/><path d="M746,400L636,332L706,414Z" fill="#5795c5" stroke="#5795c5" stroke-width="1.51"/><path d="M701,471L680,569L786,497Z" fill="#5983a6" stroke="#5983a6" stroke-width="1.51"/><path d="M583,476L680,569L701,471Z" fill="#5c89af" stroke="#5c89af" stroke-width="1.51"/><path d="M786,497L904,416L746,400Z" fill="#5985aa" stroke="#5985aa" stroke-width="1.51"/><path d="M859,597L894,513L786,497Z" fill="#64788c" stroke="#64788c" stroke-width="1.51"/><path d="M894,513L904,416L786,497Z" fill="#5e7d99" stroke="#5e7d99" stroke-width="1.51"/><path d="M680,569L767,616L786,497Z" fill="#607c96" stroke="#607c96" stroke-width="1.51"/><path d="M788,331L636,332L746,400Z" fill="#5997c6" stroke="#5997c6" stroke-width="1.51"/><path d="M706,414L583,476L701,471Z" fill="#528ebc" stroke="#528ebc" stroke-width="1.51"/><path d="M568,405L583,476L706,414Z" fill="#5895c4" stroke="#5895c4" stroke-width="1.51"/><path d="M767,616L859,597L786,497Z" fill="#64778a" stroke="#64778a" stroke-width="1.51"/><path d="M636,332L568,405L706,414Z" fill="#5b9aca" stroke="#5b9aca" stroke-width="1.51"/><path d="M904,416L884,292L788,331Z" fill="#688fb0" stroke="#688fb0" stroke-width="1.51"/><path d="M788,331L671,201L636,332Z" fill="#62a3d3" stroke="#62a3d3" stroke-width="1.51"/><path d="M636,332L576,331L568,405Z" fill="#62a2d2" stroke="#62a2d2" stroke-width="1.51"/><path d="M671,201L576,331L636,332Z" fill="#68a9da" stroke="#68a9da" stroke-width="1.51"/><path d="M767,616L770,681L859,597Z" fill="#67717a" stroke="#67717a" stroke-width="1.51"/><path d="M661,709L770,681L767,616Z" fill="#67717c" stroke="#67717c" stroke-width="1.51"/><path d="M661,709L767,616L680,569Z" fill="#667889" stroke="#667889" stroke-width="1.51"/><path d="M894,513L986,537L904,416Z" fill="#64788b" stroke="#64788b" stroke-width="1.51"/><path d="M904,416L950,325L884,292Z" fill="#6b8ba7" stroke="#6b8ba7" stroke-width="1.51"/><path d="M859,597L945,584L894,513Z" fill="#68727b" stroke="#68727b" stroke-width="1.51"/><path d="M900,731L945,584L859,597Z" fill="#6a6a69" stroke="#6a6a69" stroke-width="1.51"/><path d="M1008,377L950,325L904,416Z" fill="#6b849c" stroke="#6b849c" stroke-width="1.51"/><path d="M583,476L547,584L680,569Z" fill="#658aaa" stroke="#658aaa" stroke-width="1.51"/><path d="M462,515L547,584L583,476Z" fill="#6892b6" stroke="#6892b6" stroke-width="1.51"/><path d="M462,515L583,476L568,405Z" fill="#5e98c5" stroke="#5e98c5" stroke-width="1.51"/><path d="M945,584L986,537L894,513Z" fill="#68717a" stroke="#68717a" stroke-width="1.51"/><path d="M884,292L787,198L788,331Z" fill="#6d9bc2" stroke="#6d9bc2" stroke-width="1.51"/><path d="M836,187L787,198L884,292Z" fill="#74a1c7" stroke="#74a1c7" stroke-width="1.51"/><path d="M787,198L671,201L788,331Z" fill="#6aa5d3" stroke="#6aa5d3" stroke-width="1.51"/><path d="M986,537L1008,377L904,416Z" fill="#637a90" stroke="#637a90" stroke-width="1.51"/><path d="M547,584L661,709L680,569Z" fill="#6a7f92" stroke="#6a7f92" stroke-width="1.51"/><path d="M576,331L489,364L568,405Z" fill="#65a5d6" stroke="#65a5d6" stroke-width="1.51"/><path d="M472,270L489,364L576,331Z" fill="#6daee0" stroke="#6daee0" stroke-width="1.51"/><path d="M594,76L578,159L671,201Z" fill="#5f9bca" stroke="#5f9bca" stroke-width="1.51"/><path d="M1003,190L836,187L884,292Z" fill="#799cb9" stroke="#799cb9" stroke-width="1.51"/><path d="M1003,190L884,292L950,325Z" fill="#7793ad" stroke="#7793ad" stroke-width="1.51"/><path d="M489,364L462,515L568,405Z" fill="#609fd0" stroke="#609fd0" stroke-width="1.51"/><path d="M547,584L581,737L661,709Z" fill="#717d88" stroke="#717d88" stroke-width="1.51"/><path d="M986,537L1059,500L1008,377Z" fill="#667480" stroke="#667480" stroke-width="1.51"/><path d="M1067,585L1059,500L986,537Z" fill="#6a6b6b" stroke="#6a6b6b" stroke-width="1.51"/><path d="M770,681L900,731L859,597Z" fill="#6a6a6a" stroke="#6a6a6a" stroke-width="1.51"/><path d="M945,584L1067,585L986,537Z" fill="#6a6b6a" stroke="#6a6b6a" stroke-width="1.51"/><path d="M762,798L900,731L770,681Z" fill="#74797c" stroke="#74797c" stroke-width="1.51"/><path d="M1008,377L1040,325L950,325Z" fill="#718699" stroke="#718699" stroke-width="1.51"/><path d="M1095,388L1040,325L1008,377Z" fill="#70808e" stroke="#70808e" stroke-width="1.51"/><path d="M462,515L481,620L547,584Z" fill="#7090ac" stroke="#7090ac" stroke-width="1.51"/><path d="M661,709L762,798L770,681Z" fill="#717c88" stroke="#717c88" stroke-width="1.51"/><path d="M481,620L581,737L547,584Z" fill="#738494" stroke="#738494" stroke-width="1.51"/><path d="M900,731L944,729L945,584Z" fill="#6c665c" stroke="#6c665c" stroke-width="1.51"/><path d="M361,410L386,524L462,515Z" fill="#6ba2cd" stroke="#6ba2cd" stroke-width="1.51"/><path d="M495,226L472,270L576,331Z" fill="#72b4e7" stroke="#72b4e7" stroke-width="1.51"/><path d="M1060,732L1067,585L945,584Z" fill="#6b6256" stroke="#6b6256" stroke-width="1.51"/><path d="M671,201L578,159L576,331Z" fill="#71b2e5" stroke="#71b2e5" stroke-width="1.51"/><path d="M788,95L671,201L787,198Z" fill="#5e96c1" stroke="#5e96c1" stroke-width="1.51"/><path d="M578,159L495,226L576,331Z" fill="#74b7ea" stroke="#74b7ea" stroke-width="1.51"/><path d="M675,834L762,798L661,709Z" fill="#7a8a99" stroke="#7a8a99" stroke-width="1.51"/><path d="M900,731L903,780L944,729Z" fill="#78746e" stroke="#78746e" stroke-width="1.51"/><path d="M1059,500L1095,388L1008,377Z" fill="#6a7784" stroke="#6a7784" stroke-width="1.51"/><path d="M1173,487L1095,388L1059,500Z" fill="#6b757e" stroke="#6b757e" stroke-width="1.51"/><path d="M944,729L1060,732L945,584Z" fill="#6c6253" stroke="#6c6253" stroke-width="1.51"/><path d="M762,798L903,780L900,731Z" fill="#7b7d7e" stroke="#7b7d7e" stroke-width="1.51"/><path d="M836,187L788,95L787,198Z" fill="#6391b7" stroke="#6391b7" stroke-width="1.51"/><path d="M894,90L788,95L836,187Z" fill="#5e84a5" stroke="#5e84a5" stroke-width="1.51"/><path d="M1040,325L1003,190L950,325Z" fill="#788ea2" stroke="#788ea2" stroke-width="1.51"/><path d="M1090,229L1003,190L1040,325Z" fill="#7d8f9f" stroke="#7d8f9f" stroke-width="1.51"/><path d="M462,515L372,576L481,620Z" fill="#7495b2" stroke="#7495b2" stroke-width="1.51"/><path d="M481,620L482,725L581,737Z" fill="#798793" stroke="#798793" stroke-width="1.51"/><path d="M361,410L462,515L489,364Z" fill="#65a6d6" stroke="#65a6d6" stroke-width="1.51"/><path d="M581,737L594,804L661,709Z" fill="#7c8b99" stroke="#7c8b99" stroke-width="1.51"/><path d="M379,668L482,725L481,620Z" fill="#7b8995" stroke="#7b8995" stroke-width="1.51"/><path d="M486,786L594,804L581,737Z" fill="#8595a5" stroke="#8595a5" stroke-width="1.51"/><path d="M594,804L675,834L661,709Z" fill="#7f8f9f" stroke="#7f8f9f" stroke-width="1.51"/><path d="M762,798L764,867L903,780Z" fill="#818991" stroke="#818991" stroke-width="1.51"/><path d="M1003,190L894,90L836,187Z" fill="#6a88a3" stroke="#6a88a3" stroke-width="1.51"/><path d="M370,321L361,410L489,364Z" fill="#70b1e4" stroke="#70b1e4" stroke-width="1.51"/><path d="M370,321L489,364L472,270Z" fill="#73b5e7" stroke="#73b5e7" stroke-width="1.51"/><path d="M788,95L705,61L671,201Z" fill="#518bb7" stroke="#518bb7" stroke-width="1.51"/><path d="M781,-11L705,61L788,95Z" fill="#46759a" stroke="#46759a" stroke-width="1.51"/><path d="M386,524L372,576L462,515Z" fill="#739bbe" stroke="#739bbe" stroke-width="1.51"/><path d="M248,504L372,576L386,524Z" fill="#729cbe" stroke="#729cbe" stroke-width="1.51"/><path d="M380,169L370,321L472,270Z" fill="#7ec1f5" stroke="#7ec1f5" stroke-width="1.51"/><path d="M380,169L472,270L495,226Z" fill="#7dc1f5" stroke="#7dc1f5" stroke-width="1.51"/><path d="M1176,293L1090,229L1040,325Z" fill="#7d8b98" stroke="#7d8b98" stroke-width="1.51"/><path d="M1003,190L972,103L894,90Z" fill="#667e92" stroke="#667e92" stroke-width="1.51"/><path d="M578,159L467,88L495,226Z" fill="#69a8d8" stroke="#69a8d8" stroke-width="1.51"/><path d="M705,61L594,76L671,201Z" fill="#558ebb" stroke="#558ebb" stroke-width="1.51"/><path d="M675,834L764,867L762,798Z" fill="#8292a2" stroke="#8292a2" stroke-width="1.51"/><path d="M637,901L764,867L675,834Z" fill="#899db0" stroke="#899db0" stroke-width="1.51"/><path d="M1111,112L972,103L1003,190Z" fill="#6b7a88" stroke="#6b7a88" stroke-width="1.51"/><path d="M1067,585L1173,487L1059,500Z" fill="#6d6d6c" stroke="#6d6d6c" stroke-width="1.51"/><path d="M948,832L1060,732L944,729Z" fill="#7b7367" stroke="#7b7367" stroke-width="1.51"/><path d="M948,832L944,729L903,780Z" fill="#7e7a74" stroke="#7e7a74" stroke-width="1.51"/><path d="M1173,630L1173,487L1067,585Z" fill="#716d66" stroke="#716d66" stroke-width="1.51"/><path d="M1095,388L1176,293L1040,325Z" fill="#778490" stroke="#778490" stroke-width="1.51"/><path d="M837,936L948,832L903,780Z" fill="#8a8b8b" stroke="#8a8b8b" stroke-width="1.51"/><path d="M594,804L637,901L675,834Z" fill="#8a9eb0" stroke="#8a9eb0" stroke-width="1.51"/><path d="M482,725L486,786L581,737Z" fill="#8393a2" stroke="#8393a2" stroke-width="1.51"/><path d="M337,827L486,786L482,725Z" fill="#8ea0b1" stroke="#8ea0b1" stroke-width="1.51"/><path d="M372,576L379,668L481,620Z" fill="#7a92a7" stroke="#7a92a7" stroke-width="1.51"/><path d="M972,103L887,26L894,90Z" fill="#587187" stroke="#587187" stroke-width="1.51"/><path d="M894,90L887,26L788,95Z" fill="#547491" stroke="#547491" stroke-width="1.51"/><path d="M633,-14L576,10L594,76Z" fill="#457ba3" stroke="#457ba3" stroke-width="1.51"/><path d="M1060,732L1148,674L1067,585Z" fill="#6d5d48" stroke="#6d5d48" stroke-width="1.51"/><path d="M1158,809L1148,674L1060,732Z" fill="#7c6d58" stroke="#7c6d58" stroke-width="1.51"/><path d="M1090,229L1111,112L1003,190Z" fill="#768390" stroke="#768390" stroke-width="1.51"/><path d="M1210,385L1176,293L1095,388Z" fill="#7b8996" stroke="#7b8996" stroke-width="1.51"/><path d="M1148,674L1173,630L1067,585Z" fill="#716556" stroke="#716556" stroke-width="1.51"/><path d="M1173,487L1210,385L1095,388Z" fill="#73808d" stroke="#73808d" stroke-width="1.51"/><path d="M556,921L637,901L594,804Z" fill="#93a8bc" stroke="#93a8bc" stroke-width="1.51"/><path d="M957,926L1072,822L948,832Z" fill="#8d877e" stroke="#8d877e" stroke-width="1.51"/><path d="M1239,496L1210,385L1173,487Z" fill="#75828f" stroke="#75828f" stroke-width="1.51"/><path d="M594,76L467,88L578,159Z" fill="#5c97c4" stroke="#5c97c4" stroke-width="1.51"/><path d="M576,10L467,88L594,76Z" fill="#5188b4" stroke="#5188b4" stroke-width="1.51"/><path d="M361,410L248,504L386,524Z" fill="#6aa1cd" stroke="#6aa1cd" stroke-width="1.51"/><path d="M242,634L299,726L379,668Z" fill="#7a8792" stroke="#7a8792" stroke-width="1.51"/><path d="M370,321L294,378L361,410Z" fill="#70b1e4" stroke="#70b1e4" stroke-width="1.51"/><path d="M300,305L294,378L370,321Z" fill="#72b2e5" stroke="#72b2e5" stroke-width="1.51"/><path d="M887,26L781,-11L788,95Z" fill="#4a6e8c" stroke="#4a6e8c" stroke-width="1.51"/><path d="M467,88L380,169L495,226Z" fill="#6fafe0" stroke="#6fafe0" stroke-width="1.51"/><path d="M1176,293L1134,178L1090,229Z" fill="#8696a4" stroke="#8696a4" stroke-width="1.51"/><path d="M972,103L970,-10L887,26Z" fill="#536679" stroke="#536679" stroke-width="1.51"/><path d="M1111,112L1134,178L1172,109Z" fill="#737f89" stroke="#737f89" stroke-width="1.51"/><path d="M380,169L300,305L370,321Z" fill="#7ec2f6" stroke="#7ec2f6" stroke-width="1.51"/><path d="M633,-14L594,76L705,61Z" fill="#467ba5" stroke="#467ba5" stroke-width="1.51"/><path d="M781,-11L633,-14L705,61Z" fill="#3b6e96" stroke="#3b6e96" stroke-width="1.51"/><path d="M948,832L1072,822L1060,732Z" fill="#817768" stroke="#817768" stroke-width="1.51"/><path d="M1277,724L1269,590L1173,630Z" fill="#7d7261" stroke="#7d7261" stroke-width="1.51"/><path d="M837,936L903,780L764,867Z" fill="#8b9198" stroke="#8b9198" stroke-width="1.51"/><path d="M1173,630L1239,496L1173,487Z" fill="#777777" stroke="#777777" stroke-width="1.51"/><path d="M732,1040L837,936L764,867Z" fill="#8f9eac" stroke="#8f9eac" stroke-width="1.51"/><path d="M1134,178L1111,112L1090,229Z" fill="#798691" stroke="#798691" stroke-width="1.51"/><path d="M1241,261L1134,178L1176,293Z" fill="#8a9bab" stroke="#8a9bab" stroke-width="1.51"/><path d="M472,886L556,921L594,804Z" fill="#96abc0" stroke="#96abc0" stroke-width="1.51"/><path d="M796,1092L899,997L837,936Z" fill="#9299a1" stroke="#9299a1" stroke-width="1.51"/><path d="M472,886L594,804L486,786Z" fill="#8fa3b6" stroke="#8fa3b6" stroke-width="1.51"/><path d="M195,511L248,504L190,391Z" fill="#578cb6" stroke="#578cb6" stroke-width="1.51"/><path d="M294,378L248,504L361,410Z" fill="#63a1d1" stroke="#63a1d1" stroke-width="1.51"/><path d="M364,873L472,886L486,786Z" fill="#99afc4" stroke="#99afc4" stroke-width="1.51"/><path d="M1065,-7L970,-10L972,103Z" fill="#53606c" stroke="#53606c" stroke-width="1.51"/><path d="M887,26L801,-78L781,-11Z" fill="#426380" stroke="#426380" stroke-width="1.51"/><path d="M781,-11L670,-144L633,-14Z" fill="#396c93" stroke="#396c93" stroke-width="1.51"/><path d="M837,936L957,926L948,832Z" fill="#939494" stroke="#939494" stroke-width="1.51"/><path d="M337,827L482,725L379,668Z" fill="#8a9baa" stroke="#8a9baa" stroke-width="1.51"/><path d="M1299,404L1241,261L1210,385Z" fill="#8596a6" stroke="#8596a6" stroke-width="1.51"/><path d="M1210,385L1241,261L1176,293Z" fill="#8595a5" stroke="#8595a5" stroke-width="1.51"/><path d="M242,634L379,668L372,576Z" fill="#7a91a4" stroke="#7a91a4" stroke-width="1.51"/><path d="M380,169L231,175L300,305Z" fill="#7bbdef" stroke="#7bbdef" stroke-width="1.51"/><path d="M190,391L248,504L294,378Z" fill="#5c98c6" stroke="#5c98c6" stroke-width="1.51"/><path d="M467,88L351,106L380,169Z" fill="#6aa8d7" stroke="#6aa8d7" stroke-width="1.51"/><path d="M384,-13L351,106L467,88Z" fill="#5c96c2" stroke="#5c96c2" stroke-width="1.51"/><path d="M1239,496L1299,404L1210,385Z" fill="#7c8b9a" stroke="#7c8b9a" stroke-width="1.51"/><path d="M1173,630L1269,590L1239,496Z" fill="#7b7873" stroke="#7b7873" stroke-width="1.51"/><path d="M1277,724L1173,630L1148,674Z" fill="#796a54" stroke="#796a54" stroke-width="1.51"/><path d="M937,-106L801,-78L887,26Z" fill="#466077" stroke="#466077" stroke-width="1.51"/><path d="M1072,822L1158,809L1060,732Z" fill="#827460" stroke="#827460" stroke-width="1.51"/><path d="M1099,913L1158,809L1072,822Z" fill="#8f8271" stroke="#8f8271" stroke-width="1.51"/><path d="M248,504L242,634L372,576Z" fill="#6f8faa" stroke="#6f8faa" stroke-width="1.51"/><path d="M1280,192L1172,109L1134,178Z" fill="#7f8d9a" stroke="#7f8d9a" stroke-width="1.51"/><path d="M1111,112L1065,-7L972,103Z" fill="#5d6771" stroke="#5d6771" stroke-width="1.51"/><path d="M1401,463L1299,404L1239,496Z" fill="#8090a0" stroke="#8090a0" stroke-width="1.51"/><path d="M970,-10L937,-106L887,26Z" fill="#4a5d6f" stroke="#4a5d6f" stroke-width="1.51"/><path d="M1172,-14L1065,-7L1111,112Z" fill="#5a6066" stroke="#5a6066" stroke-width="1.51"/><path d="M280,831L337,827L299,726Z" fill="#8ea1b1" stroke="#8ea1b1" stroke-width="1.51"/><path d="M299,726L337,827L379,668Z" fill="#8a9ba9" stroke="#8a9ba9" stroke-width="1.51"/><path d="M248,504L195,511L242,634Z" fill="#6587a4" stroke="#6587a4" stroke-width="1.51"/><path d="M190,391L294,378L300,305Z" fill="#67a4d5" stroke="#67a4d5" stroke-width="1.51"/><path d="M837,936L899,997L957,926Z" fill="#939698" stroke="#939698" stroke-width="1.51"/><path d="M957,926L1099,913L1072,822Z" fill="#92897c" stroke="#92897c" stroke-width="1.51"/><path d="M680,1014L764,867L637,901Z" fill="#8fa5b9" stroke="#8fa5b9" stroke-width="1.51"/><path d="M575,995L680,1014L637,901Z" fill="#94aabf" stroke="#94aabf" stroke-width="1.51"/><path d="M575,995L637,901L556,921Z" fill="#97aec3" stroke="#97aec3" stroke-width="1.51"/><path d="M575,995L556,921L448,1030Z" fill="#9cb3c9" stroke="#9cb3c9" stroke-width="1.51"/><path d="M576,10L467,-34L467,88Z" fill="#4c82ab" stroke="#4c82ab" stroke-width="1.51"/><path d="M568,-122L467,-34L576,10Z" fill="#4579a2" stroke="#4579a2" stroke-width="1.51"/><path d="M568,-122L576,10L633,-14Z" fill="#41759c" stroke="#41759c" stroke-width="1.51"/><path d="M137,288L190,391L300,305Z" fill="#629fce" stroke="#629fce" stroke-width="1.51"/><path d="M448,1030L556,921L472,886Z" fill="#9fb6cc" stroke="#9fb6cc" stroke-width="1.51"/><path d="M337,827L364,873L486,786Z" fill="#9aafc2" stroke="#9aafc2" stroke-width="1.51"/><path d="M998,1023L1099,913L957,926Z" fill="#958e83" stroke="#958e83" stroke-width="1.51"/><path d="M195,511L197,628L242,634Z" fill="#677f95" stroke="#677f95" stroke-width="1.51"/><path d="M242,634L196,737L299,726Z" fill="#75828c" stroke="#75828c" stroke-width="1.51"/><path d="M337,827L280,831L364,873Z" fill="#9ab0c3" stroke="#9ab0c3" stroke-width="1.51"/><path d="M196,737L197,628L45,689Z" fill="#656d75" stroke="#656d75" stroke-width="1.51"/><path d="M694,1111L732,1040L680,1014Z" fill="#8fa4b8" stroke="#8fa4b8" stroke-width="1.51"/><path d="M680,1014L732,1040L764,867Z" fill="#8da2b5" stroke="#8da2b5" stroke-width="1.51"/><path d="M1172,109L1172,-14L1111,112Z" fill="#666e77" stroke="#666e77" stroke-width="1.51"/><path d="M1241,261L1280,192L1134,178Z" fill="#8d9faf" stroke="#8d9faf" stroke-width="1.51"/><path d="M1343,288L1280,192L1241,261Z" fill="#96aabc" stroke="#96aabc" stroke-width="1.51"/><path d="M801,-78L670,-144L781,-11Z" fill="#3b688c" stroke="#3b688c" stroke-width="1.51"/><path d="M1099,-85L937,-106L970,-10Z" fill="#4d5863" stroke="#4d5863" stroke-width="1.51"/><path d="M1158,809L1277,724L1148,674Z" fill="#847662" stroke="#847662" stroke-width="1.51"/><path d="M1401,463L1383,386L1299,404Z" fill="#899cae" stroke="#899cae" stroke-width="1.51"/><path d="M1302,833L1277,724L1158,809Z" fill="#948877" stroke="#948877" stroke-width="1.51"/><path d="M351,106L231,175L380,169Z" fill="#6eacdc" stroke="#6eacdc" stroke-width="1.51"/><path d="M236,77L231,175L351,106Z" fill="#609bc8" stroke="#609bc8" stroke-width="1.51"/><path d="M467,-34L384,-13L467,88Z" fill="#4f86af" stroke="#4f86af" stroke-width="1.51"/><path d="M883,-141L670,-144L801,-78Z" fill="#3f6686" stroke="#3f6686" stroke-width="1.51"/><path d="M467,-34L448,-92L384,-13Z" fill="#4d82ab" stroke="#4d82ab" stroke-width="1.51"/><path d="M196,737L280,831L299,726Z" fill="#8292a0" stroke="#8292a0" stroke-width="1.51"/><path d="M346,986L448,1030L472,886Z" fill="#a4bdd3" stroke="#a4bdd3" stroke-width="1.51"/><path d="M670,-144L568,-122L633,-14Z" fill="#3e729a" stroke="#3e729a" stroke-width="1.51"/><path d="M231,175L203,201L300,305Z" fill="#74b4e5" stroke="#74b4e5" stroke-width="1.51"/><path d="M198,79L203,201L231,175Z" fill="#5e99c5" stroke="#5e99c5" stroke-width="1.51"/><path d="M937,-106L883,-141L801,-78Z" fill="#466078" stroke="#466078" stroke-width="1.51"/><path d="M1299,404L1343,288L1241,261Z" fill="#8ea1b2" stroke="#8ea1b2" stroke-width="1.51"/><path d="M1383,386L1343,288L1299,404Z" fill="#8da1b3" stroke="#8da1b3" stroke-width="1.51"/><path d="M1099,913L1160,924L1158,809Z" fill="#998e7e" stroke="#998e7e" stroke-width="1.51"/><path d="M899,997L998,1023L957,926Z" fill="#94928f" stroke="#94928f" stroke-width="1.51"/><path d="M870,1109L998,1023L899,997Z" fill="#949494" stroke="#949494" stroke-width="1.51"/><path d="M1094,1020L1160,924L1099,913Z" fill="#9a8e7f" stroke="#9a8e7f" stroke-width="1.51"/><path d="M91,576L197,628L195,511Z" fill="#5e7990" stroke="#5e7990" stroke-width="1.51"/><path d="M197,628L196,737L242,634Z" fill="#6c7881" stroke="#6c7881" stroke-width="1.51"/><path d="M384,-13L236,77L351,106Z" fill="#5992bd" stroke="#5992bd" stroke-width="1.51"/><path d="M568,-122L448,-92L467,-34Z" fill="#487da5" stroke="#487da5" stroke-width="1.51"/><path d="M1065,-7L1099,-85L970,-10Z" fill="#4e555d" stroke="#4e555d" stroke-width="1.51"/><path d="M937,-106L1162,-134L883,-141Z" fill="#4d5965" stroke="#4d5965" stroke-width="1.51"/><path d="M1250,16L1172,-14L1172,109Z" fill="#646c74" stroke="#646c74" stroke-width="1.51"/><path d="M1309,112L1172,109L1280,192Z" fill="#808f9d" stroke="#808f9d" stroke-width="1.51"/><path d="M1401,463L1239,496L1269,590Z" fill="#82888e" stroke="#82888e" stroke-width="1.51"/><path d="M27,478L91,576L195,511Z" fill="#517492" stroke="#517492" stroke-width="1.51"/><path d="M203,201L137,288L300,305Z" fill="#6ba9d9" stroke="#6ba9d9" stroke-width="1.51"/><path d="M732,1040L796,1092L837,936Z" fill="#909dab" stroke="#909dab" stroke-width="1.51"/><path d="M694,1111L796,1092L732,1040Z" fill="#8ea1b3" stroke="#8ea1b3" stroke-width="1.51"/><path d="M203,201L65,163L137,288Z" fill="#639ecc" stroke="#639ecc" stroke-width="1.51"/><path d="M237,-25L236,77L384,-13Z" fill="#4b7fa7" stroke="#4b7fa7" stroke-width="1.51"/><path d="M1172,-14L1099,-85L1065,-7Z" fill="#52575c" stroke="#52575c" stroke-width="1.51"/><path d="M1395,583L1401,463L1269,590Z" fill="#898c8f" stroke="#898c8f" stroke-width="1.51"/><path d="M237,880L364,873L280,831Z" fill="#98adc0" stroke="#98adc0" stroke-width="1.51"/><path d="M346,986L472,886L364,873Z" fill="#a6bfd6" stroke="#a6bfd6" stroke-width="1.51"/><path d="M580,1115L694,1111L680,1014Z" fill="#93a8bd" stroke="#93a8bd" stroke-width="1.51"/><path d="M1412,160L1280,192L1343,288Z" fill="#9cb1c5" stroke="#9cb1c5" stroke-width="1.51"/><path d="M1412,160L1309,112L1280,192Z" fill="#8d9eaf" stroke="#8d9eaf" stroke-width="1.51"/><path d="M1172,-14L1162,-134L1099,-85Z" fill="#565b61" stroke="#565b61" stroke-width="1.51"/><path d="M1402,734L1395,583L1277,724Z" fill="#8c806e" stroke="#8c806e" stroke-width="1.51"/><path d="M1277,724L1395,583L1269,590Z" fill="#867e71" stroke="#867e71" stroke-width="1.51"/><path d="M580,1115L680,1014L575,995Z" fill="#96acc1" stroke="#96acc1" stroke-width="1.51"/><path d="M1289,893L1302,833L1158,809Z" fill="#9f9486" stroke="#9f9486" stroke-width="1.51"/><path d="M998,1023L1094,1020L1099,913Z" fill="#958b7c" stroke="#958b7c" stroke-width="1.51"/><path d="M1077,1127L1094,1020L998,1023Z" fill="#958b7d" stroke="#958b7d" stroke-width="1.51"/><path d="M448,-92L369,-85L384,-13Z" fill="#4f85ae" stroke="#4f85ae" stroke-width="1.51"/><path d="M280,-113L369,-85L448,-92Z" fill="#5188b2" stroke="#5188b2" stroke-width="1.51"/><path d="M280,-113L448,-92L568,-122Z" fill="#4d82ab" stroke="#4d82ab" stroke-width="1.51"/><path d="M1309,112L1250,16L1172,109Z" fill="#717d88" stroke="#717d88" stroke-width="1.51"/><path d="M796,1092L870,1109L899,997Z" fill="#92999f" stroke="#92999f" stroke-width="1.51"/><path d="M694,1111L870,1109L796,1092Z" fill="#909dab" stroke="#909dab" stroke-width="1.51"/><path d="M1289,893L1158,809L1160,924Z" fill="#9f9586" stroke="#9f9586" stroke-width="1.51"/><path d="M1094,1020L1182,966L1160,924Z" fill="#9d9284" stroke="#9d9284" stroke-width="1.51"/><path d="M169,831L237,880L280,831Z" fill="#8c9eaf" stroke="#8c9eaf" stroke-width="1.51"/><path d="M236,77L198,79L231,175Z" fill="#578fba" stroke="#578fba" stroke-width="1.51"/><path d="M237,-25L198,79L236,77Z" fill="#497da4" stroke="#497da4" stroke-width="1.51"/><path d="M237,880L346,986L364,873Z" fill="#a2bad0" stroke="#a2bad0" stroke-width="1.51"/><path d="M58,392L195,511L190,391Z" fill="#4d86b1" stroke="#4d86b1" stroke-width="1.51"/><path d="M196,737L169,831L280,831Z" fill="#8292a0" stroke="#8292a0" stroke-width="1.51"/><path d="M694,1111L981,1136L870,1109Z" fill="#9299a0" stroke="#9299a0" stroke-width="1.51"/><path d="M498,1125L580,1115L575,995Z" fill="#9ab1c7" stroke="#9ab1c7" stroke-width="1.51"/><path d="M498,1125L575,995L448,1030Z" fill="#9db5cb" stroke="#9db5cb" stroke-width="1.51"/><path d="M1302,833L1350,794L1277,724Z" fill="#9a8f80" stroke="#9a8f80" stroke-width="1.51"/><path d="M1336,897L1350,794L1302,833Z" fill="#a89e92" stroke="#a89e92" stroke-width="1.51"/><path d="M1182,966L1289,893L1160,924Z" fill="#a49b8e" stroke="#a49b8e" stroke-width="1.51"/><path d="M237,880L283,1012L346,986Z" fill="#9eb5ca" stroke="#9eb5ca" stroke-width="1.51"/><path d="M79,810L169,831L196,737Z" fill="#778491" stroke="#778491" stroke-width="1.51"/><path d="M137,288L58,392L190,391Z" fill="#548db9" stroke="#548db9" stroke-width="1.51"/><path d="M31,330L58,392L137,288Z" fill="#4f86b1" stroke="#4f86b1" stroke-width="1.51"/><path d="M1383,386L1448,386L1343,288Z" fill="#94a9bd" stroke="#94a9bd" stroke-width="1.51"/><path d="M1401,463L1448,386L1383,386Z" fill="#8fa4b7" stroke="#8fa4b7" stroke-width="1.51"/><path d="M1472,530L1448,386L1401,463Z" fill="#8ea1b4" stroke="#8ea1b4" stroke-width="1.51"/><path d="M1472,530L1401,463L1395,583Z" fill="#90979f" stroke="#90979f" stroke-width="1.51"/><path d="M-19,270L31,330L137,288Z" fill="#5087b2" stroke="#5087b2" stroke-width="1.51"/><path d="M369,-85L237,-25L384,-13Z" fill="#4e83ac" stroke="#4e83ac" stroke-width="1.51"/><path d="M1350,794L1402,734L1277,724Z" fill="#988d7d" stroke="#988d7d" stroke-width="1.51"/><path d="M1504,814L1402,734L1350,794Z" fill="#a79e91" stroke="#a79e91" stroke-width="1.51"/><path d="M1294,-120L1172,-14L1250,16Z" fill="#5f6770" stroke="#5f6770" stroke-width="1.51"/><path d="M1294,-120L1162,-134L1172,-14Z" fill="#5c636b" stroke="#5c636b" stroke-width="1.51"/><path d="M1099,-85L1162,-134L937,-106Z" fill="#4f5459" stroke="#4f5459" stroke-width="1.51"/><path d="M351,1133L498,1125L448,1030Z" fill="#a3bcd2" stroke="#a3bcd2" stroke-width="1.51"/><path d="M580,1115L498,1125L694,1111Z" fill="#97adc3" stroke="#97adc3" stroke-width="1.51"/><path d="M351,1133L448,1030L346,986Z" fill="#a7c0d7" stroke="#a7c0d7" stroke-width="1.51"/><path d="M1297,988L1336,897L1289,893Z" fill="#b0a89e" stroke="#b0a89e" stroke-width="1.51"/><path d="M1094,1020L1142,1136L1182,966Z" fill="#9c9183" stroke="#9c9183" stroke-width="1.51"/><path d="M870,1109L981,1136L998,1023Z" fill="#94928f" stroke="#94928f" stroke-width="1.51"/><path d="M498,1125L981,1136L694,1111Z" fill="#8da2b6" stroke="#8da2b6" stroke-width="1.51"/><path d="M1309,112L1387,15L1250,16Z" fill="#727e8a" stroke="#727e8a" stroke-width="1.51"/><path d="M1498,292L1412,160L1343,288Z" fill="#a4bcd2" stroke="#a4bcd2" stroke-width="1.51"/><path d="M1514,633L1472,530L1395,583Z" fill="#939492" stroke="#939492" stroke-width="1.51"/><path d="M1448,386L1498,292L1343,288Z" fill="#9cb3c9" stroke="#9cb3c9" stroke-width="1.51"/><path d="M91,576L45,689L197,628Z" fill="#5c6a77" stroke="#5c6a77" stroke-width="1.51"/><path d="M58,392L27,478L195,511Z" fill="#4679a0" stroke="#4679a0" stroke-width="1.51"/><path d="M136,937L283,1012L237,880Z" fill="#94a8bb" stroke="#94a8bb" stroke-width="1.51"/><path d="M58,392L-63,366L27,478Z" fill="#3c7098" stroke="#3c7098" stroke-width="1.51"/><path d="M65,163L203,201L198,79Z" fill="#568eb9" stroke="#568eb9" stroke-width="1.51"/><path d="M1297,988L1289,893L1182,966Z" fill="#aaa195" stroke="#aaa195" stroke-width="1.51"/><path d="M1289,893L1336,897L1302,833Z" fill="#aba397" stroke="#aba397" stroke-width="1.51"/><path d="M369,-85L280,-113L237,-25Z" fill="#497da5" stroke="#497da5" stroke-width="1.51"/><path d="M45,133L65,163L198,79Z" fill="#4a7ea6" stroke="#4a7ea6" stroke-width="1.51"/><path d="M670,-144L280,-113L568,-122Z" fill="#477ca5" stroke="#477ca5" stroke-width="1.51"/><path d="M1504,814L1452,709L1402,734Z" fill="#a49a8d" stroke="#a49a8d" stroke-width="1.51"/><path d="M1402,734L1452,709L1395,583Z" fill="#928676" stroke="#928676" stroke-width="1.51"/><path d="M-68,626L45,689L91,576Z" fill="#505b67" stroke="#505b67" stroke-width="1.51"/><path d="M169,831L136,937L237,880Z" fill="#8b9eaf" stroke="#8b9eaf" stroke-width="1.51"/><path d="M142,11L198,79L237,-25Z" fill="#407197" stroke="#407197" stroke-width="1.51"/><path d="M981,1136L1077,1127L998,1023Z" fill="#958e83" stroke="#958e83" stroke-width="1.51"/><path d="M153,-106L142,11L237,-25Z" fill="#39698d" stroke="#39698d" stroke-width="1.51"/><path d="M45,689L79,810L196,737Z" fill="#69737c" stroke="#69737c" stroke-width="1.51"/><path d="M1474,872L1504,814L1350,794Z" fill="#b2aaa0" stroke="#b2aaa0" stroke-width="1.51"/><path d="M1298,1116L1297,988L1182,966Z" fill="#aaa296" stroke="#aaa296" stroke-width="1.51"/><path d="M1566,430L1498,292L1448,386Z" fill="#97adc3" stroke="#97adc3" stroke-width="1.51"/><path d="M1412,160L1411,65L1309,112Z" fill="#8798a9" stroke="#8798a9" stroke-width="1.51"/><path d="M1506,60L1411,65L1412,160Z" fill="#8a9cae" stroke="#8a9cae" stroke-width="1.51"/><path d="M1411,65L1387,15L1309,112Z" fill="#7b8a98" stroke="#7b8a98" stroke-width="1.51"/><path d="M142,11L45,133L198,79Z" fill="#42749b" stroke="#42749b" stroke-width="1.51"/><path d="M65,163L-19,270L137,288Z" fill="#5891bc" stroke="#5891bc" stroke-width="1.51"/><path d="M1472,530L1566,430L1448,386Z" fill="#8da2b6" stroke="#8da2b6" stroke-width="1.51"/><path d="M1452,709L1514,633L1395,583Z" fill="#958d82" stroke="#958d82" stroke-width="1.51"/><path d="M1575,587L1514,633L1609,671Z" fill="#948e85" stroke="#948e85" stroke-width="1.51"/><path d="M45,689L-2,835L79,810Z" fill="#666e78" stroke="#666e78" stroke-width="1.51"/><path d="M27,478L-26,534L91,576Z" fill="#486782" stroke="#486782" stroke-width="1.51"/><path d="M-130,467L-26,534L27,478Z" fill="#3f6686" stroke="#3f6686" stroke-width="1.51"/><path d="M-63,366L58,392L31,330Z" fill="#43779f" stroke="#43779f" stroke-width="1.51"/><path d="M79,810L136,937L169,831Z" fill="#7f8f9e" stroke="#7f8f9e" stroke-width="1.51"/><path d="M283,1012L351,1133L346,986Z" fill="#a4bcd2" stroke="#a4bcd2" stroke-width="1.51"/><path d="M1077,1127L1142,1136L1094,1020Z" fill="#988d7d" stroke="#988d7d" stroke-width="1.51"/><path d="M981,1136L1142,1136L1077,1127Z" fill="#958b7b" stroke="#958b7b" stroke-width="1.51"/><path d="M244,1098L351,1133L283,1012Z" fill="#9fb6cb" stroke="#9fb6cb" stroke-width="1.51"/><path d="M498,1125L351,1133L981,1136Z" fill="#96acc1" stroke="#96acc1" stroke-width="1.51"/><path d="M1387,15L1294,-120L1250,16Z" fill="#67707a" stroke="#67707a" stroke-width="1.51"/><path d="M1498,292L1510,227L1412,160Z" fill="#a9c2d9" stroke="#a9c2d9" stroke-width="1.51"/><path d="M1510,-81L1361,-138L1387,15Z" fill="#727e8c" stroke="#727e8c" stroke-width="1.51"/><path d="M1613,268L1510,227L1498,292Z" fill="#a4bdd3" stroke="#a4bdd3" stroke-width="1.51"/><path d="M-63,174L-19,270L65,163Z" fill="#4d82ab" stroke="#4d82ab" stroke-width="1.51"/><path d="M1592,520L1566,430L1472,530Z" fill="#909daa" stroke="#909daa" stroke-width="1.51"/><path d="M136,937L184,1040L283,1012Z" fill="#91a5b8" stroke="#91a5b8" stroke-width="1.51"/><path d="M-19,270L-63,366L31,330Z" fill="#477ba4" stroke="#477ba4" stroke-width="1.51"/><path d="M45,133L-63,174L65,163Z" fill="#45789f" stroke="#45789f" stroke-width="1.51"/><path d="M-19,270L-101,223L-63,366Z" fill="#4b80a9" stroke="#4b80a9" stroke-width="1.51"/><path d="M142,11L56,6L45,133Z" fill="#37668a" stroke="#37668a" stroke-width="1.51"/><path d="M280,-113L153,-106L237,-25Z" fill="#3f7196" stroke="#3f7196" stroke-width="1.51"/><path d="M28,-123L153,-106L280,-113Z" fill="#366588" stroke="#366588" stroke-width="1.51"/><path d="M184,1040L244,1098L283,1012Z" fill="#97acbf" stroke="#97acbf" stroke-width="1.51"/><path d="M1297,988L1353,1016L1336,897Z" fill="#b2aba1" stroke="#b2aba1" stroke-width="1.51"/><path d="M1298,1116L1353,1016L1297,988Z" fill="#b1aa9f" stroke="#b1aa9f" stroke-width="1.51"/><path d="M153,-106L56,6L142,11Z" fill="#315f81" stroke="#315f81" stroke-width="1.51"/><path d="M56,6L2,97L45,133Z" fill="#37668a" stroke="#37668a" stroke-width="1.51"/><path d="M1514,633L1575,587L1472,530Z" fill="#939492" stroke="#939492" stroke-width="1.51"/><path d="M1566,791L1514,633L1452,709Z" fill="#9c9183" stroke="#9c9183" stroke-width="1.51"/><path d="M1474,872L1350,794L1336,897Z" fill="#b0a99f" stroke="#b0a99f" stroke-width="1.51"/><path d="M1442,1009L1474,872L1336,897Z" fill="#beb8b0" stroke="#beb8b0" stroke-width="1.51"/><path d="M-26,534L-68,626L91,576Z" fill="#4a5d70" stroke="#4a5d70" stroke-width="1.51"/><path d="M79,810L30,934L136,937Z" fill="#7f8e9e" stroke="#7f8e9e" stroke-width="1.51"/><path d="M136,937L134,1074L184,1040Z" fill="#8a9cad" stroke="#8a9cad" stroke-width="1.51"/><path d="M-134,623L-68,626L-26,534Z" fill="#4b5b6c" stroke="#4b5b6c" stroke-width="1.51"/><path d="M1575,587L1592,520L1472,530Z" fill="#92979c" stroke="#92979c" stroke-width="1.51"/><path d="M1564,80L1506,60L1510,227Z" fill="#90a4b7" stroke="#90a4b7" stroke-width="1.51"/><path d="M-57,718L-2,835L45,689Z" fill="#5b6169" stroke="#5b6169" stroke-width="1.51"/><path d="M1387,15L1361,-138L1294,-120Z" fill="#6b7580" stroke="#6b7580" stroke-width="1.51"/><path d="M1294,-120L1361,-138L1162,-134Z" fill="#636b74" stroke="#636b74" stroke-width="1.51"/><path d="M1162,-134L1361,-138L883,-141Z" fill="#555a60" stroke="#555a60" stroke-width="1.51"/><path d="M883,-141L1570,-143L670,-144Z" fill="#4e565d" stroke="#4e565d" stroke-width="1.51"/><path d="M1503,30L1387,15L1411,65Z" fill="#7b8b9a" stroke="#7b8b9a" stroke-width="1.51"/><path d="M1613,268L1498,292L1566,430Z" fill="#9cb3c9" stroke="#9cb3c9" stroke-width="1.51"/><path d="M1510,227L1506,60L1412,160Z" fill="#97acbf" stroke="#97acbf" stroke-width="1.51"/><path d="M-68,626L-57,718L45,689Z" fill="#505458" stroke="#505458" stroke-width="1.51"/><path d="M1142,1136L1298,1116L1182,966Z" fill="#a49a8e" stroke="#a49a8e" stroke-width="1.51"/><path d="M1353,1016L1442,1009L1336,897Z" fill="#b8b2a9" stroke="#b8b2a9" stroke-width="1.51"/><path d="M1506,60L1503,30L1411,65Z" fill="#8090a0" stroke="#8090a0" stroke-width="1.51"/><path d="M1564,80L1503,30L1506,60Z" fill="#8191a1" stroke="#8191a1" stroke-width="1.51"/><path d="M-129,85L-63,174L2,97Z" fill="#3b6b90" stroke="#3b6b90" stroke-width="1.51"/><path d="M2,97L-63,174L45,133Z" fill="#3f6f95" stroke="#3f6f95" stroke-width="1.51"/><path d="M-63,366L-130,467L27,478Z" fill="#386c92" stroke="#386c92" stroke-width="1.51"/><path d="M-2,835L30,934L79,810Z" fill="#737f8c" stroke="#737f8c" stroke-width="1.51"/><path d="M184,1040L134,1074L244,1098Z" fill="#8fa3b5" stroke="#8fa3b5" stroke-width="1.51"/><path d="M-74,894L30,934L-2,835Z" fill="#727e8c" stroke="#727e8c" stroke-width="1.51"/><path d="M1298,1116L1361,1082L1353,1016Z" fill="#b3aca3" stroke="#b3aca3" stroke-width="1.51"/><path d="M59,1043L134,1074L136,937Z" fill="#8495a5" stroke="#8495a5" stroke-width="1.51"/><path d="M244,1098L102,1120L351,1133Z" fill="#96abbe" stroke="#96abbe" stroke-width="1.51"/><path d="M1661,284L1613,268L1566,430Z" fill="#9cb3c9" stroke="#9cb3c9" stroke-width="1.51"/><path d="M1569,882L1504,814L1474,872Z" fill="#b7b1a8" stroke="#b7b1a8" stroke-width="1.51"/><path d="M1569,882L1566,791L1504,814Z" fill="#b2aba1" stroke="#b2aba1" stroke-width="1.51"/><path d="M1504,814L1566,791L1452,709Z" fill="#a79f92" stroke="#a79f92" stroke-width="1.51"/><path d="M1575,587L1642,597L1592,520Z" fill="#939596" stroke="#939596" stroke-width="1.51"/><path d="M-177,390L-130,467L-63,366Z" fill="#3c7097" stroke="#3c7097" stroke-width="1.51"/><path d="M-68,626L-154,698L-57,718Z" fill="#505459" stroke="#505459" stroke-width="1.51"/><path d="M1592,520L1657,485L1566,430Z" fill="#8f9faf" stroke="#8f9faf" stroke-width="1.51"/><path d="M1566,791L1609,671L1514,633Z" fill="#9a8e7f" stroke="#9a8e7f" stroke-width="1.51"/><path d="M-63,174L-101,223L-19,270Z" fill="#5287b1" stroke="#5287b1" stroke-width="1.51"/><path d="M-129,85L-101,223L-63,174Z" fill="#44779d" stroke="#44779d" stroke-width="1.51"/><path d="M1361,1082L1442,1009L1353,1016Z" fill="#b9b3ab" stroke="#b9b3ab" stroke-width="1.51"/><path d="M1613,268L1603,197L1510,227Z" fill="#a8c1d8" stroke="#a8c1d8" stroke-width="1.51"/><path d="M1503,30L1510,-81L1387,15Z" fill="#74818f" stroke="#74818f" stroke-width="1.51"/><path d="M1603,197L1564,80L1510,227Z" fill="#9bb1c6" stroke="#9bb1c6" stroke-width="1.51"/><path d="M1609,671L1642,597L1575,587Z" fill="#948f88" stroke="#948f88" stroke-width="1.51"/><path d="M1651,664L1642,597L1609,671Z" fill="#958d81" stroke="#958d81" stroke-width="1.51"/><path d="M-130,467L-134,623L-26,534Z" fill="#466179" stroke="#466179" stroke-width="1.51"/><path d="M-127,839L-74,894L-2,835Z" fill="#6d7884" stroke="#6d7884" stroke-width="1.51"/><path d="M1642,597L1657,485L1592,520Z" fill="#92999f" stroke="#92999f" stroke-width="1.51"/><path d="M1613,268L1661,284L1603,197Z" fill="#a6bfd5" stroke="#a6bfd5" stroke-width="1.51"/><path d="M30,934L59,1043L136,937Z" fill="#7f8e9e" stroke="#7f8e9e" stroke-width="1.51"/><path d="M-56,1014L59,1043L30,934Z" fill="#768391" stroke="#768391" stroke-width="1.51"/><path d="M56,6L-24,-36L2,97Z" fill="#285374" stroke="#285374" stroke-width="1.51"/><path d="M28,-123L-24,-36L56,6Z" fill="#244f6f" stroke="#244f6f" stroke-width="1.51"/><path d="M1710,793L1651,664L1609,671Z" fill="#9c9182" stroke="#9c9182" stroke-width="1.51"/><path d="M1551,990L1569,882L1474,872Z" fill="#c0bbb4" stroke="#c0bbb4" stroke-width="1.51"/><path d="M1642,597L1651,664L1657,485Z" fill="#939492" stroke="#939492" stroke-width="1.51"/><path d="M1710,793L1609,671L1566,791Z" fill="#a49a8d" stroke="#a49a8d" stroke-width="1.51"/><path d="M1603,197L1643,160L1564,80Z" fill="#96abbe" stroke="#96abbe" stroke-width="1.51"/><path d="M1679,424L1661,284L1566,430Z" fill="#96acc1" stroke="#96acc1" stroke-width="1.51"/><path d="M153,-106L28,-123L56,6Z" fill="#2c597a" stroke="#2c597a" stroke-width="1.51"/><path d="M670,-144L28,-123L280,-113Z" fill="#4d82ab" stroke="#4d82ab" stroke-width="1.51"/><path d="M1710,793L1679,424L1657,485Z" fill="#939596" stroke="#939596" stroke-width="1.51"/><path d="M1657,485L1679,424L1566,430Z" fill="#8ea3b7" stroke="#8ea3b7" stroke-width="1.51"/><path d="M1579,-33L1510,-81L1503,30Z" fill="#74818f" stroke="#74818f" stroke-width="1.51"/><path d="M1579,-33L1503,30L1564,80Z" fill="#7a8897" stroke="#7a8897" stroke-width="1.51"/><path d="M-101,223L-168,318L-63,366Z" fill="#497ea6" stroke="#497ea6" stroke-width="1.51"/><path d="M-130,467L-177,390L-134,623Z" fill="#3f6685" stroke="#3f6685" stroke-width="1.51"/><path d="M-129,85L-168,318L-101,223Z" fill="#4e84ad" stroke="#4e84ad" stroke-width="1.51"/><path d="M134,1074L102,1120L244,1098Z" fill="#8b9daf" stroke="#8b9daf" stroke-width="1.51"/><path d="M59,1043L102,1120L134,1074Z" fill="#8292a3" stroke="#8292a3" stroke-width="1.51"/><path d="M-168,318L-177,390L-63,366Z" fill="#42779e" stroke="#42779e" stroke-width="1.51"/><path d="M59,1043L-38,1130L102,1120Z" fill="#7a8897" stroke="#7a8897" stroke-width="1.51"/><path d="M-127,839L-2,835L-57,718Z" fill="#636c75" stroke="#636c75" stroke-width="1.51"/><path d="M1661,284L1643,160L1603,197Z" fill="#a6bfd5" stroke="#a6bfd5" stroke-width="1.51"/><path d="M-134,623L-154,698L-68,626Z" fill="#4e565e" stroke="#4e565e" stroke-width="1.51"/><path d="M-177,390L-154,698L-134,623Z" fill="#495e72" stroke="#495e72" stroke-width="1.51"/><path d="M-24,-36L-129,85L2,97Z" fill="#2c587a" stroke="#2c587a" stroke-width="1.51"/><path d="M-146,8L-129,85L-24,-36Z" fill="#265171" stroke="#265171" stroke-width="1.51"/><path d="M1674,17L1579,-33L1564,80Z" fill="#798796" stroke="#798796" stroke-width="1.51"/><path d="M-74,894L-56,1014L30,934Z" fill="#74818f" stroke="#74818f" stroke-width="1.51"/><path d="M-154,698L-127,839L-57,718Z" fill="#5c626a" stroke="#5c626a" stroke-width="1.51"/><path d="M1699,874L1710,793L1566,791Z" fill="#b0a99f" stroke="#b0a99f" stroke-width="1.51"/><path d="M1442,1009L1551,990L1474,872Z" fill="#c0bbb4" stroke="#c0bbb4" stroke-width="1.51"/><path d="M1490,1104L1551,990L1442,1009Z" fill="#c0bbb4" stroke="#c0bbb4" stroke-width="1.51"/><path d="M1490,1104L1442,1009L1361,1082Z" fill="#bfb9b2" stroke="#bfb9b2" stroke-width="1.51"/><path d="M1608,1131L1490,1104L1298,1116Z" fill="#c0bbb4" stroke="#c0bbb4" stroke-width="1.51"/><path d="M1298,1116L1490,1104L1361,1082Z" fill="#b9b3aa" stroke="#b9b3aa" stroke-width="1.51"/><path d="M-103,1000L-56,1014L-74,894Z" fill="#74818f" stroke="#74818f" stroke-width="1.51"/><path d="M28,-123L-72,-102L-24,-36Z" fill="#224c6b" stroke="#224c6b" stroke-width="1.51"/><path d="M-127,839L-151,877L-74,894Z" fill="#6f7b87" stroke="#6f7b87" stroke-width="1.51"/><path d="M-154,698L-151,877L-127,839Z" fill="#656d77" stroke="#656d77" stroke-width="1.51"/><path d="M-177,390L-151,877L-154,698Z" fill="#4e555c" stroke="#4e555c" stroke-width="1.51"/><path d="M-136,-67L-146,8L-24,-36Z" fill="#224c6b" stroke="#224c6b" stroke-width="1.51"/><path d="M-129,85L-146,8L-168,318Z" fill="#3f7095" stroke="#3f7095" stroke-width="1.51"/><path d="M-168,318L-146,8L-177,390Z" fill="#5186b0" stroke="#5186b0" stroke-width="1.51"/><path d="M1679,424L1702,111L1661,284Z" fill="#a3bbd2" stroke="#a3bbd2" stroke-width="1.51"/><path d="M1661,284L1702,111L1643,160Z" fill="#9fb6cc" stroke="#9fb6cc" stroke-width="1.51"/><path d="M1643,160L1702,111L1564,80Z" fill="#8fa3b5" stroke="#8fa3b5" stroke-width="1.51"/><path d="M1655,-74L1570,-143L1579,-33Z" fill="#74818f" stroke="#74818f" stroke-width="1.51"/><path d="M1579,-33L1570,-143L1510,-81Z" fill="#74818f" stroke="#74818f" stroke-width="1.51"/><path d="M1510,-81L1570,-143L1361,-138Z" fill="#74818f" stroke="#74818f" stroke-width="1.51"/><path d="M1361,-138L1570,-143L883,-141Z" fill="#636b74" stroke="#636b74" stroke-width="1.51"/><path d="M-151,877L-103,1000L-74,894Z" fill="#74818f" stroke="#74818f" stroke-width="1.51"/><path d="M-56,1014L-38,1130L59,1043Z" fill="#74818f" stroke="#74818f" stroke-width="1.51"/><path d="M1699,874L1569,882L1700,978Z" fill="#c0bbb4" stroke="#c0bbb4" stroke-width="1.51"/><path d="M1699,874L1566,791L1569,882Z" fill="#b6afa6" stroke="#b6afa6" stroke-width="1.51"/><path d="M1651,664L1710,793L1657,485Z" fill="#958d81" stroke="#958d81" stroke-width="1.51"/><path d="M1679,424L1710,793L1702,111Z" fill="#8ea3b7" stroke="#8ea3b7" stroke-width="1.51"/><path d="M1702,111L1674,17L1564,80Z" fill="#8495a5" stroke="#8495a5" stroke-width="1.51"/><path d="M-72,-102L-136,-67L-24,-36Z" fill="#224c6b" stroke="#224c6b" stroke-width="1.51"/><path d="M1700,978L1569,882L1551,990Z" fill="#c0bbb4" stroke="#c0bbb4" stroke-width="1.51"/><path d="M-120,1109L-38,1130L-56,1014Z" fill="#74818f" stroke="#74818f" stroke-width="1.51"/><path d="M102,1120L-38,1130L351,1133Z" fill="#889aab" stroke="#889aab" stroke-width="1.51"/><path d="M1702,111L1655,-74L1674,17Z" fill="#788695" stroke="#788695" stroke-width="1.51"/><path d="M1674,17L1655,-74L1579,-33Z" fill="#74818f" stroke="#74818f" stroke-width="1.51"/><path d="M1608,1131L1700,978L1551,990Z" fill="#c0bbb4" stroke="#c0bbb4" stroke-width="1.51"/><path d="M1699,874L1700,978L1710,793Z" fill="#bcb7af" stroke="#bcb7af" stroke-width="1.51"/><path d="M1490,1104L1608,1131L1551,990Z" fill="#c0bbb4" stroke="#c0bbb4" stroke-width="1.51"/><path d="M1142,1136L1608,1131L1298,1116Z" fill="#b5aea5" stroke="#b5aea5" stroke-width="1.51"/><path d="M-103,1000L-120,1109L-56,1014Z" fill="#74818f" stroke="#74818f" stroke-width="1.51"/><path d="M-151,877L-120,1109L-103,1000Z" fill="#74818f" stroke="#74818f" stroke-width="1.51"/><path d="M1608,1131L1712,1098L1700,978Z" fill="#c0bbb4" stroke="#c0bbb4" stroke-width="1.51"/><path d="M1700,978L1712,1098L1710,793Z" fill="#c0bbb4" stroke="#c0bbb4" stroke-width="1.51"/></svg>