<svg xmlns="http://www.w3.org/2000/svg" width="1440" height="900"><path d="M747,381L865,400L810,249Z" fill="#7cb4d7" stroke="#7cb4d7" stroke-width="1.51"/><path d="M865,400L956,266L810,249Z" fill="#7db2d7" stroke="#7db2d7" stroke-width="1.51"/><path d="M936,394L956,266L865,400Z" fill="#6fa9d2" stroke="#6fa9d2" stroke-width="1.51"/><path d="M810,249L683,222L747,381Z" fill="#8dbede" stroke="#8dbede" stroke-width="1.51"/><path d="M818,150L683,222L810,249Z" fill="#98c2e1" stroke="#98c2e1" stroke-width="1.51"/><path d="M956,266L818,150L810,249Z" fill="#8fb9dc" stroke="#8fb9dc" stroke-width="1.51"/><path d="M747,381L871,530L865,400Z" fill="#63a7d2" stroke="#63a7d2" stroke-width="1.51"/><path d="M865,400L871,530L936,394Z" fill="#5ba1cf" stroke="#5ba1cf" stroke-width="1.51"/><path d="M747,381L686,492L871,530Z" fill="#63a8d3" stroke="#63a8d3" stroke-width="1.51"/><path d="M583,387L686,492L747,381Z" fill="#7ab5d9" stroke="#7ab5d9" stroke-width="1.51"/><path d="M818,150L692,139L683,222Z" fill="#a0c7e4" stroke="#a0c7e4" stroke-width="1.51"/><path d="M599,231L583,387L683,222Z" fill="#9ec8e2" stroke="#9ec8e2" stroke-width="1.51"/><path d="M683,222L583,387L747,381Z" fill="#8ec0de" stroke="#8ec0de" stroke-width="1.51"/><path d="M692,139L599,231L683,222Z" fill="#a6cbe5" stroke="#a6cbe5" stroke-width="1.51"/><path d="M936,394L1065,345L956,266Z" fill="#70a5d0" stroke="#70a5d0" stroke-width="1.51"/><path d="M956,266L994,153L818,150Z" fill="#8db6db" stroke="#8db6db" stroke-width="1.51"/><path d="M1014,514L1065,345L936,394Z" fill="#5a9acb" stroke="#5a9acb" stroke-width="1.51"/><path d="M1120,256L994,153L956,266Z" fill="#83aad5" stroke="#83aad5" stroke-width="1.51"/><path d="M818,150L746,2L692,139Z" fill="#a6cae6" stroke="#a6cae6" stroke-width="1.51"/><path d="M871,530L1014,514L936,394Z" fill="#5098ca" stroke="#5098ca" stroke-width="1.51"/><path d="M686,492L700,627L871,530Z" fill="#569fce" stroke="#569fce" stroke-width="1.51"/><path d="M583,387L612,533L686,492Z" fill="#76b2d8" stroke="#76b2d8" stroke-width="1.51"/><path d="M692,139L565,145L599,231Z" fill="#aed0e7" stroke="#aed0e7" stroke-width="1.51"/><path d="M599,231L438,346L583,387Z" fill="#a1cbe2" stroke="#a1cbe2" stroke-width="1.51"/><path d="M1065,345L1120,256L956,266Z" fill="#75a3d0" stroke="#75a3d0" stroke-width="1.51"/><path d="M1235,397L1120,256L1065,345Z" fill="#6897c8" stroke="#6897c8" stroke-width="1.51"/><path d="M612,533L700,627L686,492Z" fill="#63a5d1" stroke="#63a5d1" stroke-width="1.51"/><path d="M871,530L986,660L1014,514Z" fill="#3d8bc3" stroke="#3d8bc3" stroke-width="1.51"/><path d="M700,627L875,664L871,530Z" fill="#4892c6" stroke="#4892c6" stroke-width="1.51"/><path d="M881,0L746,2L818,150Z" fill="#a7c9e5" stroke="#a7c9e5" stroke-width="1.51"/><path d="M692,139L622,-36L565,145Z" fill="#b7d5ea" stroke="#b7d5ea" stroke-width="1.51"/><path d="M994,153L881,0L818,150Z" fill="#99bedf" stroke="#99bedf" stroke-width="1.51"/><path d="M960,5L881,0L994,153Z" fill="#9bbddf" stroke="#9bbddf" stroke-width="1.51"/><path d="M1120,256L1098,138L994,153Z" fill="#85a8d4" stroke="#85a8d4" stroke-width="1.51"/><path d="M1098,138L960,5L994,153Z" fill="#92b3da" stroke="#92b3da" stroke-width="1.51"/><path d="M1014,514L1097,554L1065,345Z" fill="#498fc5" stroke="#498fc5" stroke-width="1.51"/><path d="M1069,646L1097,554L1014,514Z" fill="#3482be" stroke="#3482be" stroke-width="1.51"/><path d="M875,664L986,660L871,530Z" fill="#3a89c2" stroke="#3a89c2" stroke-width="1.51"/><path d="M612,533L580,627L700,627Z" fill="#63a2ce" stroke="#63a2ce" stroke-width="1.51"/><path d="M700,627L751,752L875,664Z" fill="#4489c3" stroke="#4489c3" stroke-width="1.51"/><path d="M435,552L580,627L612,533Z" fill="#73acd3" stroke="#73acd3" stroke-width="1.51"/><path d="M435,552L612,533L583,387Z" fill="#7fb6d9" stroke="#7fb6d9" stroke-width="1.51"/><path d="M437,222L438,346L599,231Z" fill="#b1d2e7" stroke="#b1d2e7" stroke-width="1.51"/><path d="M565,145L437,222L599,231Z" fill="#b6d5e9" stroke="#b6d5e9" stroke-width="1.51"/><path d="M451,93L437,222L565,145Z" fill="#c0daec" stroke="#c0daec" stroke-width="1.51"/><path d="M986,660L1069,646L1014,514Z" fill="#3280bd" stroke="#3280bd" stroke-width="1.51"/><path d="M746,2L622,-36L692,139Z" fill="#b5d4eb" stroke="#b5d4eb" stroke-width="1.51"/><path d="M732,-112L622,-36L746,2Z" fill="#b7d5eb" stroke="#b7d5eb" stroke-width="1.51"/><path d="M840,-104L746,2L881,0Z" fill="#abcbe6" stroke="#abcbe6" stroke-width="1.51"/><path d="M600,788L751,752L700,627Z" fill="#4f8ac1" stroke="#4f8ac1" stroke-width="1.51"/><path d="M875,664L952,750L986,660Z" fill="#2f7bba" stroke="#2f7bba" stroke-width="1.51"/><path d="M986,660L1112,737L1069,646Z" fill="#2472b6" stroke="#2472b6" stroke-width="1.51"/><path d="M1097,554L1235,397L1065,345Z" fill="#4f8cc3" stroke="#4f8cc3" stroke-width="1.51"/><path d="M1120,256L1246,132L1098,138Z" fill="#82a0cf" stroke="#82a0cf" stroke-width="1.51"/><path d="M1249,542L1235,397L1097,554Z" fill="#3e7fba" stroke="#3e7fba" stroke-width="1.51"/><path d="M622,-36L451,93L565,145Z" fill="#c3dded" stroke="#c3dded" stroke-width="1.51"/><path d="M960,5L840,-104L881,0Z" fill="#a5c6e3" stroke="#a5c6e3" stroke-width="1.51"/><path d="M580,627L600,788L700,627Z" fill="#5c94c8" stroke="#5c94c8" stroke-width="1.51"/><path d="M438,346L435,552L583,387Z" fill="#91c1df" stroke="#91c1df" stroke-width="1.51"/><path d="M322,418L435,552L438,346Z" fill="#99c4e2" stroke="#99c4e2" stroke-width="1.51"/><path d="M831,778L952,750L875,664Z" fill="#327ab8" stroke="#327ab8" stroke-width="1.51"/><path d="M751,752L831,778L875,664Z" fill="#3c7fba" stroke="#3c7fba" stroke-width="1.51"/><path d="M840,-104L732,-112L746,2Z" fill="#b0d0e8" stroke="#b0d0e8" stroke-width="1.51"/><path d="M960,5L1002,-134L840,-104Z" fill="#a3c2e1" stroke="#a3c2e1" stroke-width="1.51"/><path d="M1098,138L1128,4L960,5Z" fill="#95b1da" stroke="#95b1da" stroke-width="1.51"/><path d="M1246,132L1128,4L1098,138Z" fill="#8ca5d1" stroke="#8ca5d1" stroke-width="1.51"/><path d="M1235,397L1273,220L1120,256Z" fill="#6d93c5" stroke="#6d93c5" stroke-width="1.51"/><path d="M1273,220L1246,132L1120,256Z" fill="#7c98c9" stroke="#7c98c9" stroke-width="1.51"/><path d="M1245,678L1097,554L1069,646Z" fill="#2773b4" stroke="#2773b4" stroke-width="1.51"/><path d="M1245,678L1249,542L1097,554Z" fill="#2a72b3" stroke="#2a72b3" stroke-width="1.51"/><path d="M1235,397L1364,252L1273,220Z" fill="#6a8bbd" stroke="#6a8bbd" stroke-width="1.51"/><path d="M435,552L467,674L580,627Z" fill="#75a7d2" stroke="#75a7d2" stroke-width="1.51"/><path d="M751,752L830,881L831,778Z" fill="#3975b2" stroke="#3975b2" stroke-width="1.51"/><path d="M732,-112L617,-118L622,-36Z" fill="#bdd9ed" stroke="#bdd9ed" stroke-width="1.51"/><path d="M622,-36L426,11L451,93Z" fill="#cde3f0" stroke="#cde3f0" stroke-width="1.51"/><path d="M437,222L320,283L438,346Z" fill="#b8d5ea" stroke="#b8d5ea" stroke-width="1.51"/><path d="M435,552L361,678L467,674Z" fill="#7ca8d3" stroke="#7ca8d3" stroke-width="1.51"/><path d="M334,94L320,283L437,222Z" fill="#c8ddf0" stroke="#c8ddf0" stroke-width="1.51"/><path d="M320,283L322,418L438,346Z" fill="#b0d1e7" stroke="#b0d1e7" stroke-width="1.51"/><path d="M952,750L1112,737L986,660Z" fill="#2670b3" stroke="#2670b3" stroke-width="1.51"/><path d="M960,918L1112,737L952,750Z" fill="#2065a9" stroke="#2065a9" stroke-width="1.51"/><path d="M1128,4L1002,-134L960,5Z" fill="#9db8dd" stroke="#9db8dd" stroke-width="1.51"/><path d="M840,-104L1002,-134L732,-112Z" fill="#a8c8e5" stroke="#a8c8e5" stroke-width="1.51"/><path d="M732,-112L501,-168L617,-118Z" fill="#c1dced" stroke="#c1dced" stroke-width="1.51"/><path d="M1110,-148L1002,-134L1128,4Z" fill="#9ab3da" stroke="#9ab3da" stroke-width="1.51"/><path d="M467,674L600,788L580,627Z" fill="#6798c8" stroke="#6798c8" stroke-width="1.51"/><path d="M451,93L334,94L437,222Z" fill="#cbdff0" stroke="#cbdff0" stroke-width="1.51"/><path d="M501,-168L426,11L622,-36Z" fill="#cee3f1" stroke="#cee3f1" stroke-width="1.51"/><path d="M1403,-30L1203,-13L1246,132Z" fill="#8c9dc9" stroke="#8c9dc9" stroke-width="1.51"/><path d="M1246,132L1203,-13L1128,4Z" fill="#90a5d0" stroke="#90a5d0" stroke-width="1.51"/><path d="M322,418L342,550L435,552Z" fill="#92bddf" stroke="#92bddf" stroke-width="1.51"/><path d="M426,11L334,94L451,93Z" fill="#d2e4f3" stroke="#d2e4f3" stroke-width="1.51"/><path d="M831,778L830,881L952,750Z" fill="#3070af" stroke="#3070af" stroke-width="1.51"/><path d="M734,903L830,881L751,752Z" fill="#3c71a9" stroke="#3c71a9" stroke-width="1.51"/><path d="M1384,385L1364,252L1235,397Z" fill="#5e83b4" stroke="#5e83b4" stroke-width="1.51"/><path d="M1112,737L1245,678L1069,646Z" fill="#1d6aaf" stroke="#1d6aaf" stroke-width="1.51"/><path d="M1268,786L1245,678L1112,737Z" fill="#145da5" stroke="#145da5" stroke-width="1.51"/><path d="M1345,505L1235,397L1249,542Z" fill="#3e79b4" stroke="#3e79b4" stroke-width="1.51"/><path d="M1273,220L1369,144L1246,132Z" fill="#7d92c2" stroke="#7d92c2" stroke-width="1.51"/><path d="M1363,637L1345,505L1249,542Z" fill="#2b6ba9" stroke="#2b6ba9" stroke-width="1.51"/><path d="M1206,-122L1110,-148L1128,4Z" fill="#97acd6" stroke="#97acd6" stroke-width="1.51"/><path d="M1002,-134L501,-168L732,-112Z" fill="#b2d2ea" stroke="#b2d2ea" stroke-width="1.51"/><path d="M361,678L437,753L467,674Z" fill="#779dcd" stroke="#779dcd" stroke-width="1.51"/><path d="M467,674L437,753L600,788Z" fill="#6a94c6" stroke="#6a94c6" stroke-width="1.51"/><path d="M600,788L734,903L751,752Z" fill="#487bb4" stroke="#487bb4" stroke-width="1.51"/><path d="M342,550L361,678L435,552Z" fill="#85b0d7" stroke="#85b0d7" stroke-width="1.51"/><path d="M235,638L361,678L342,550Z" fill="#88aed7" stroke="#88aed7" stroke-width="1.51"/><path d="M1345,505L1384,385L1235,397Z" fill="#497ab1" stroke="#497ab1" stroke-width="1.51"/><path d="M559,907L734,903L600,788Z" fill="#4f78a9" stroke="#4f78a9" stroke-width="1.51"/><path d="M426,11L311,38L334,94Z" fill="#d9e7f6" stroke="#d9e7f6" stroke-width="1.51"/><path d="M174,234L187,401L320,283Z" fill="#c1dbed" stroke="#c1dbed" stroke-width="1.51"/><path d="M187,401L209,476L322,418Z" fill="#a7cce6" stroke="#a7cce6" stroke-width="1.51"/><path d="M348,-98L311,38L426,11Z" fill="#dfebf7" stroke="#dfebf7" stroke-width="1.51"/><path d="M1485,270L1369,144L1364,252Z" fill="#7183b0" stroke="#7183b0" stroke-width="1.51"/><path d="M1364,252L1369,144L1273,220Z" fill="#768cbb" stroke="#768cbb" stroke-width="1.51"/><path d="M1203,-13L1206,-122L1128,4Z" fill="#95a9d3" stroke="#95a9d3" stroke-width="1.51"/><path d="M1110,-148L501,-168L1002,-134Z" fill="#a7c7e4" stroke="#a7c7e4" stroke-width="1.51"/><path d="M617,-118L501,-168L622,-36Z" fill="#c6dfef" stroke="#c6dfef" stroke-width="1.51"/><path d="M1368,-114L1206,-122L1203,-13Z" fill="#92a1cd" stroke="#92a1cd" stroke-width="1.51"/><path d="M830,881L960,918L952,750Z" fill="#2965a2" stroke="#2965a2" stroke-width="1.51"/><path d="M878,1066L960,918L830,881Z" fill="#2a6098" stroke="#2a6098" stroke-width="1.51"/><path d="M322,418L209,476L342,550Z" fill="#9bc3e2" stroke="#9bc3e2" stroke-width="1.51"/><path d="M187,401L322,418L320,283Z" fill="#b2d2e8" stroke="#b2d2e8" stroke-width="1.51"/><path d="M1345,505L1490,421L1384,385Z" fill="#4370a4" stroke="#4370a4" stroke-width="1.51"/><path d="M1245,678L1363,637L1249,542Z" fill="#2266a9" stroke="#2266a9" stroke-width="1.51"/><path d="M1328,732L1363,637L1245,678Z" fill="#165ba0" stroke="#165ba0" stroke-width="1.51"/><path d="M734,903L878,1066L830,881Z" fill="#34659b" stroke="#34659b" stroke-width="1.51"/><path d="M465,877L559,907L600,788Z" fill="#5d7fae" stroke="#5d7fae" stroke-width="1.51"/><path d="M465,877L600,788L437,753Z" fill="#6689bc" stroke="#6689bc" stroke-width="1.51"/><path d="M361,678L370,778L437,753Z" fill="#7899ca" stroke="#7899ca" stroke-width="1.51"/><path d="M244,815L370,778L361,678Z" fill="#7d99ca" stroke="#7d99ca" stroke-width="1.51"/><path d="M174,234L320,283L177,155Z" fill="#cfe1f2" stroke="#cfe1f2" stroke-width="1.51"/><path d="M177,155L320,283L334,94Z" fill="#d1e2f2" stroke="#d1e2f2" stroke-width="1.51"/><path d="M501,-168L348,-98L426,11Z" fill="#d8e8f4" stroke="#d8e8f4" stroke-width="1.51"/><path d="M1231,923L1268,786L1112,737Z" fill="#0e529a" stroke="#0e529a" stroke-width="1.51"/><path d="M370,778L465,877L437,753Z" fill="#6f8dbf" stroke="#6f8dbf" stroke-width="1.51"/><path d="M177,155L334,94L311,38Z" fill="#dae8f6" stroke="#dae8f6" stroke-width="1.51"/><path d="M1268,786L1328,732L1245,678Z" fill="#10579f" stroke="#10579f" stroke-width="1.51"/><path d="M370,778L362,870L465,877Z" fill="#6f88b7" stroke="#6f88b7" stroke-width="1.51"/><path d="M209,476L235,638L342,550Z" fill="#92bbdd" stroke="#92bbdd" stroke-width="1.51"/><path d="M100,474L235,638L209,476Z" fill="#9cc2e1" stroke="#9cc2e1" stroke-width="1.51"/><path d="M194,-46L177,155L311,38Z" fill="#e2edf9" stroke="#e2edf9" stroke-width="1.51"/><path d="M1384,385L1485,270L1364,252Z" fill="#627dab" stroke="#627dab" stroke-width="1.51"/><path d="M1369,144L1403,-30L1246,132Z" fill="#8493bf" stroke="#8493bf" stroke-width="1.51"/><path d="M1490,421L1485,270L1384,385Z" fill="#5576a4" stroke="#5576a4" stroke-width="1.51"/><path d="M1515,540L1345,505L1363,637Z" fill="#2a629c" stroke="#2a629c" stroke-width="1.51"/><path d="M1515,540L1490,421L1345,505Z" fill="#38679c" stroke="#38679c" stroke-width="1.51"/><path d="M1490,87L1403,-30L1369,144Z" fill="#818bb3" stroke="#818bb3" stroke-width="1.51"/><path d="M1408,932L1494,806L1328,732Z" fill="#093d7f" stroke="#093d7f" stroke-width="1.51"/><path d="M960,918L1146,944L1112,737Z" fill="#175597" stroke="#175597" stroke-width="1.51"/><path d="M1018,1061L1146,944L960,918Z" fill="#1b5391" stroke="#1b5391" stroke-width="1.51"/><path d="M244,815L362,870L370,778Z" fill="#788ebe" stroke="#788ebe" stroke-width="1.51"/><path d="M615,1027L734,903L559,907Z" fill="#4c72a2" stroke="#4c72a2" stroke-width="1.51"/><path d="M1403,-30L1368,-114L1203,-13Z" fill="#8e9ac4" stroke="#8e9ac4" stroke-width="1.51"/><path d="M1206,-122L1368,-114L1110,-148Z" fill="#93a5cf" stroke="#93a5cf" stroke-width="1.51"/><path d="M615,1027L687,1032L734,903Z" fill="#466ea1" stroke="#466ea1" stroke-width="1.51"/><path d="M615,1027L559,907L497,1069Z" fill="#5877a4" stroke="#5877a4" stroke-width="1.51"/><path d="M1403,-30L1458,-115L1368,-114Z" fill="#8991b7" stroke="#8991b7" stroke-width="1.51"/><path d="M1485,270L1490,87L1369,144Z" fill="#7483ad" stroke="#7483ad" stroke-width="1.51"/><path d="M1530,22L1490,87L1631,87Z" fill="#808ab1" stroke="#808ab1" stroke-width="1.51"/><path d="M1146,944L1231,923L1112,737Z" fill="#114d91" stroke="#114d91" stroke-width="1.51"/><path d="M1512,631L1515,540L1363,637Z" fill="#235994" stroke="#235994" stroke-width="1.51"/><path d="M497,1069L559,907L465,877Z" fill="#5e7aa6" stroke="#5e7aa6" stroke-width="1.51"/><path d="M348,-98L194,-46L311,38Z" fill="#e4eef9" stroke="#e4eef9" stroke-width="1.51"/><path d="M236,-141L194,-46L348,-98Z" fill="#e5eff9" stroke="#e5eff9" stroke-width="1.51"/><path d="M187,401L100,474L209,476Z" fill="#a9cde7" stroke="#a9cde7" stroke-width="1.51"/><path d="M235,638L244,815L361,678Z" fill="#83a2d0" stroke="#83a2d0" stroke-width="1.51"/><path d="M82,384L100,474L187,401Z" fill="#b2d2ea" stroke="#b2d2ea" stroke-width="1.51"/><path d="M82,384L187,401L174,234Z" fill="#c1dbec" stroke="#c1dbec" stroke-width="1.51"/><path d="M82,384L174,234L62,234Z" fill="#cde2f1" stroke="#cde2f1" stroke-width="1.51"/><path d="M1512,631L1363,637L1494,806Z" fill="#144d8d" stroke="#144d8d" stroke-width="1.51"/><path d="M1490,421L1620,385L1485,270Z" fill="#5576a4" stroke="#5576a4" stroke-width="1.51"/><path d="M62,234L174,234L177,155Z" fill="#d7e6f5" stroke="#d7e6f5" stroke-width="1.51"/><path d="M497,1069L878,1066L687,1032Z" fill="#446ea0" stroke="#446ea0" stroke-width="1.51"/><path d="M687,1032L878,1066L734,903Z" fill="#3a699d" stroke="#3a699d" stroke-width="1.51"/><path d="M1146,944L1236,1052L1231,923Z" fill="#0d4587" stroke="#0d4587" stroke-width="1.51"/><path d="M368,1053L497,1069L465,877Z" fill="#657ca8" stroke="#657ca8" stroke-width="1.51"/><path d="M83,752L244,815L235,638Z" fill="#88a2cf" stroke="#88a2cf" stroke-width="1.51"/><path d="M501,-168L236,-141L348,-98Z" fill="#dfebf7" stroke="#dfebf7" stroke-width="1.51"/><path d="M90,34L107,84L194,-46Z" fill="#ecf3fb" stroke="#ecf3fb" stroke-width="1.51"/><path d="M194,-46L107,84L177,155Z" fill="#e5eff9" stroke="#e5eff9" stroke-width="1.51"/><path d="M878,1066L1018,1061L960,918Z" fill="#245a95" stroke="#245a95" stroke-width="1.51"/><path d="M1494,806L1363,637L1328,732Z" fill="#114d90" stroke="#114d90" stroke-width="1.51"/><path d="M107,84L62,234L177,155Z" fill="#deebf7" stroke="#deebf7" stroke-width="1.51"/><path d="M1490,87L1530,22L1403,-30Z" fill="#848cb2" stroke="#848cb2" stroke-width="1.51"/><path d="M1626,254L1490,87L1485,270Z" fill="#7181ac" stroke="#7181ac" stroke-width="1.51"/><path d="M1530,22L1458,-115L1403,-30Z" fill="#878eb3" stroke="#878eb3" stroke-width="1.51"/><path d="M1368,-114L1738,-164L1110,-148Z" fill="#8992b8" stroke="#8992b8" stroke-width="1.51"/><path d="M-53,87L-55,269L62,234Z" fill="#e2edf8" stroke="#e2edf8" stroke-width="1.51"/><path d="M99,-157L90,34L194,-46Z" fill="#eef5fc" stroke="#eef5fc" stroke-width="1.51"/><path d="M1408,932L1328,732L1268,786Z" fill="#09458b" stroke="#09458b" stroke-width="1.51"/><path d="M1018,1061L1124,1068L1146,944Z" fill="#154e8e" stroke="#154e8e" stroke-width="1.51"/><path d="M878,1066L1124,1068L1018,1061Z" fill="#1e5693" stroke="#1e5693" stroke-width="1.51"/><path d="M615,1027L497,1069L687,1032Z" fill="#5274a3" stroke="#5274a3" stroke-width="1.51"/><path d="M878,1066L497,1069L1124,1068Z" fill="#32649a" stroke="#32649a" stroke-width="1.51"/><path d="M368,1053L465,877L362,870Z" fill="#6a7eaa" stroke="#6a7eaa" stroke-width="1.51"/><path d="M1515,540L1620,385L1490,421Z" fill="#406c9f" stroke="#406c9f" stroke-width="1.51"/><path d="M1634,549L1620,385L1515,540Z" fill="#37679c" stroke="#37679c" stroke-width="1.51"/><path d="M1620,385L1626,254L1485,270Z" fill="#617ba7" stroke="#617ba7" stroke-width="1.51"/><path d="M244,815L218,890L362,870Z" fill="#788ab7" stroke="#788ab7" stroke-width="1.51"/><path d="M112,903L218,890L244,815Z" fill="#7c8cb6" stroke="#7c8cb6" stroke-width="1.51"/><path d="M100,474L52,635L235,638Z" fill="#99bdde" stroke="#99bdde" stroke-width="1.51"/><path d="M-58,485L52,635L100,474Z" fill="#a7c8e4" stroke="#a7c8e4" stroke-width="1.51"/><path d="M-58,485L100,474L82,384Z" fill="#b2d2ea" stroke="#b2d2ea" stroke-width="1.51"/><path d="M1618,620L1634,549L1515,540Z" fill="#285e97" stroke="#285e97" stroke-width="1.51"/><path d="M1408,932L1268,786L1231,923Z" fill="#093f81" stroke="#093f81" stroke-width="1.51"/><path d="M1124,1068L1236,1052L1146,944Z" fill="#104889" stroke="#104889" stroke-width="1.51"/><path d="M1353,1046L1408,932L1231,923Z" fill="#093a79" stroke="#093a79" stroke-width="1.51"/><path d="M52,635L83,752L235,638Z" fill="#91aed8" stroke="#91aed8" stroke-width="1.51"/><path d="M1618,620L1515,540L1512,631Z" fill="#235a95" stroke="#235a95" stroke-width="1.51"/><path d="M1620,385L1781,284L1626,254Z" fill="#607ba6" stroke="#607ba6" stroke-width="1.51"/><path d="M199,1007L368,1053L218,890Z" fill="#7584ad" stroke="#7584ad" stroke-width="1.51"/><path d="M218,890L368,1053L362,870Z" fill="#7182ac" stroke="#7182ac" stroke-width="1.51"/><path d="M1530,22L1619,-5L1458,-115Z" fill="#878eb3" stroke="#878eb3" stroke-width="1.51"/><path d="M1626,254L1631,87L1490,87Z" fill="#7785ae" stroke="#7785ae" stroke-width="1.51"/><path d="M1619,-5L1631,87L1787,-30Z" fill="#858db3" stroke="#858db3" stroke-width="1.51"/><path d="M1494,806L1618,620L1512,631Z" fill="#154e8e" stroke="#154e8e" stroke-width="1.51"/><path d="M236,-141L99,-157L194,-46Z" fill="#ebf3fb" stroke="#ebf3fb" stroke-width="1.51"/><path d="M-53,87L62,234L107,84Z" fill="#e6f0f9" stroke="#e6f0f9" stroke-width="1.51"/><path d="M501,-168L99,-157L236,-141Z" fill="#e4eef9" stroke="#e4eef9" stroke-width="1.51"/><path d="M1631,87L1619,-5L1530,22Z" fill="#838cb2" stroke="#838cb2" stroke-width="1.51"/><path d="M62,234L-55,269L82,384Z" fill="#d0e4f2" stroke="#d0e4f2" stroke-width="1.51"/><path d="M52,635L-89,745L83,752Z" fill="#96add6" stroke="#96add6" stroke-width="1.51"/><path d="M-53,87L107,84L90,34Z" fill="#ecf4fc" stroke="#ecf4fc" stroke-width="1.51"/><path d="M-93,428L-58,485L82,384Z" fill="#b8d6ec" stroke="#b8d6ec" stroke-width="1.51"/><path d="M1236,1052L1353,1046L1231,923Z" fill="#093f81" stroke="#093f81" stroke-width="1.51"/><path d="M1408,932L1530,939L1494,806Z" fill="#08316c" stroke="#08316c" stroke-width="1.51"/><path d="M1494,806L1656,814L1618,620Z" fill="#0e4587" stroke="#0e4587" stroke-width="1.51"/><path d="M1124,1068L1353,1046L1236,1052Z" fill="#0b4285" stroke="#0b4285" stroke-width="1.51"/><path d="M-55,269L-93,428L82,384Z" fill="#c7dfef" stroke="#c7dfef" stroke-width="1.51"/><path d="M-63,16L-53,87L90,34Z" fill="#f2f7fe" stroke="#f2f7fe" stroke-width="1.51"/><path d="M83,752L112,903L244,815Z" fill="#8495c1" stroke="#8495c1" stroke-width="1.51"/><path d="M-94,914L112,903L83,752Z" fill="#8994bd" stroke="#8994bd" stroke-width="1.51"/><path d="M-58,485L-84,663L52,635Z" fill="#a1c0e0" stroke="#a1c0e0" stroke-width="1.51"/><path d="M-166,341L-93,428L-55,269Z" fill="#c9e1ef" stroke="#c9e1ef" stroke-width="1.51"/><path d="M112,903L199,1007L218,890Z" fill="#7b87af" stroke="#7b87af" stroke-width="1.51"/><path d="M1353,1046L1473,995L1408,932Z" fill="#08326f" stroke="#08326f" stroke-width="1.51"/><path d="M-53,87L-159,221L-55,269Z" fill="#e2edf8" stroke="#e2edf8" stroke-width="1.51"/><path d="M-87,-96L-63,16L90,34Z" fill="#f7fbff" stroke="#f7fbff" stroke-width="1.51"/><path d="M1473,995L1530,939L1408,932Z" fill="#08306b" stroke="#08306b" stroke-width="1.51"/><path d="M1787,-30L1663,-103L1619,-5Z" fill="#878eb3" stroke="#878eb3" stroke-width="1.51"/><path d="M1619,-5L1663,-103L1458,-115Z" fill="#878eb3" stroke="#878eb3" stroke-width="1.51"/><path d="M1458,-115L1738,-164L1368,-114Z" fill="#878eb3" stroke="#878eb3" stroke-width="1.51"/><path d="M1789,110L1631,87L1626,254Z" fill="#7685ae" stroke="#7685ae" stroke-width="1.51"/><path d="M-198,523L-84,663L-58,485Z" fill="#a5c6e3" stroke="#a5c6e3" stroke-width="1.51"/><path d="M1634,549L1778,395L1620,385Z" fill="#416da0" stroke="#416da0" stroke-width="1.51"/><path d="M1790,544L1778,395L1634,549Z" fill="#36669c" stroke="#36669c" stroke-width="1.51"/><path d="M1790,544L1634,549L1779,636Z" fill="#275d96" stroke="#275d96" stroke-width="1.51"/><path d="M1778,395L1781,284L1620,385Z" fill="#5777a4" stroke="#5777a4" stroke-width="1.51"/><path d="M1603,919L1656,814L1494,806Z" fill="#093776" stroke="#093776" stroke-width="1.51"/><path d="M-200,165L-159,221L-53,87Z" fill="#e6f0fa" stroke="#e6f0fa" stroke-width="1.51"/><path d="M-93,428L-198,523L-58,485Z" fill="#b0d0e9" stroke="#b0d0e9" stroke-width="1.51"/><path d="M-159,221L-166,341L-55,269Z" fill="#d6e7f4" stroke="#d6e7f4" stroke-width="1.51"/><path d="M1530,939L1603,919L1494,806Z" fill="#08316d" stroke="#08316d" stroke-width="1.51"/><path d="M1668,1003L1603,919L1530,939Z" fill="#08306b" stroke="#08306b" stroke-width="1.51"/><path d="M112,903L33,996L199,1007Z" fill="#7f8ab1" stroke="#7f8ab1" stroke-width="1.51"/><path d="M-84,663L-89,745L52,635Z" fill="#99b2da" stroke="#99b2da" stroke-width="1.51"/><path d="M-163,755L-89,745L-84,663Z" fill="#96acd5" stroke="#96acd5" stroke-width="1.51"/><path d="M1779,636L1634,549L1618,620Z" fill="#235994" stroke="#235994" stroke-width="1.51"/><path d="M1778,395L1790,544L1781,284Z" fill="#4a70a1" stroke="#4a70a1" stroke-width="1.51"/><path d="M1790,544L1789,110L1781,284Z" fill="#5f7aa6" stroke="#5f7aa6" stroke-width="1.51"/><path d="M1781,284L1789,110L1626,254Z" fill="#6f80ac" stroke="#6f80ac" stroke-width="1.51"/><path d="M99,-157L-87,-96L90,34Z" fill="#f5f9fe" stroke="#f5f9fe" stroke-width="1.51"/><path d="M-174,5L-200,165L-53,87Z" fill="#eef5fc" stroke="#eef5fc" stroke-width="1.51"/><path d="M1754,816L1779,636L1656,814Z" fill="#0d4586" stroke="#0d4586" stroke-width="1.51"/><path d="M1656,814L1779,636L1618,620Z" fill="#154e8e" stroke="#154e8e" stroke-width="1.51"/><path d="M-21,997L33,996L-94,914Z" fill="#878eb3" stroke="#878eb3" stroke-width="1.51"/><path d="M199,1007L33,996L368,1053Z" fill="#7986af" stroke="#7986af" stroke-width="1.51"/><path d="M-159,221L-200,165L-166,341Z" fill="#dce9f6" stroke="#dce9f6" stroke-width="1.51"/><path d="M-166,341L-198,523L-93,428Z" fill="#b8d6ec" stroke="#b8d6ec" stroke-width="1.51"/><path d="M-174,5L-53,87L-63,16Z" fill="#f3f8fd" stroke="#f3f8fd" stroke-width="1.51"/><path d="M-200,165L-198,523L-166,341Z" fill="#cae2ef" stroke="#cae2ef" stroke-width="1.51"/><path d="M-94,914L33,996L112,903Z" fill="#868db3" stroke="#868db3" stroke-width="1.51"/><path d="M1789,110L1787,-30L1631,87Z" fill="#818bb1" stroke="#818bb1" stroke-width="1.51"/><path d="M-87,-96L-174,5L-63,16Z" fill="#f7fbff" stroke="#f7fbff" stroke-width="1.51"/><path d="M1787,-30L1738,-164L1663,-103Z" fill="#878eb3" stroke="#878eb3" stroke-width="1.51"/><path d="M1663,-103L1738,-164L1458,-115Z" fill="#878eb3" stroke="#878eb3" stroke-width="1.51"/><path d="M1110,-148L1738,-164L501,-168Z" fill="#98afd8" stroke="#98afd8" stroke-width="1.51"/><path d="M1773,923L1754,816L1656,814Z" fill="#093775" stroke="#093775" stroke-width="1.51"/><path d="M-224,647L-163,755L-84,663Z" fill="#99b1d9" stroke="#99b1d9" stroke-width="1.51"/><path d="M-94,914L83,752L-89,745Z" fill="#909eca" stroke="#909eca" stroke-width="1.51"/><path d="M33,996L-147,1017L368,1053Z" fill="#818bb1" stroke="#818bb1" stroke-width="1.51"/><path d="M-87,-96L-146,-143L-174,5Z" fill="#f7fbff" stroke="#f7fbff" stroke-width="1.51"/><path d="M99,-157L-146,-143L-87,-96Z" fill="#f7fbff" stroke="#f7fbff" stroke-width="1.51"/><path d="M-163,755L-94,914L-89,745Z" fill="#909ec9" stroke="#909ec9" stroke-width="1.51"/><path d="M1603,919L1773,923L1656,814Z" fill="#08326e" stroke="#08326e" stroke-width="1.51"/><path d="M1473,995L1668,1003L1530,939Z" fill="#08306b" stroke="#08306b" stroke-width="1.51"/><path d="M1353,1046L1668,1003L1473,995Z" fill="#08306b" stroke="#08306b" stroke-width="1.51"/><path d="M-163,755L-192,914L-94,914Z" fill="#8b95bc" stroke="#8b95bc" stroke-width="1.51"/><path d="M-198,523L-224,647L-84,663Z" fill="#a0bedf" stroke="#a0bedf" stroke-width="1.51"/><path d="M-200,165L-224,647L-198,523Z" fill="#b6d4eb" stroke="#b6d4eb" stroke-width="1.51"/><path d="M1668,1003L1773,923L1603,919Z" fill="#08306b" stroke="#08306b" stroke-width="1.51"/><path d="M1754,816L1773,923L1779,636Z" fill="#094082" stroke="#094082" stroke-width="1.51"/><path d="M1779,636L1791,997L1790,544Z" fill="#11488a" stroke="#11488a" stroke-width="1.51"/><path d="M-94,914L-147,1017L-21,997Z" fill="#878eb3" stroke="#878eb3" stroke-width="1.51"/><path d="M-224,647L-192,914L-163,755Z" fill="#93a3cf" stroke="#93a3cf" stroke-width="1.51"/><path d="M1668,1003L1791,997L1773,923Z" fill="#08306b" stroke="#08306b" stroke-width="1.51"/><path d="M1773,923L1791,997L1779,636Z" fill="#093775" stroke="#093775" stroke-width="1.51"/><path d="M1353,1046L1791,997L1668,1003Z" fill="#08306b" stroke="#08306b" stroke-width="1.51"/><path d="M-192,914L-147,1017L-94,914Z" fill="#878eb3" stroke="#878eb3" stroke-width="1.51"/><path d="M-21,997L-147,1017L33,996Z" fill="#878eb3" stroke="#878eb3" stroke-width="1.51"/><path d="M368,1053L-147,1017L497,1069Z" fill="#7685ae" stroke="#7685ae" stroke-width="1.51"/></svg>