<svg xmlns="http://www.w3.org/2000/svg" width="1440" height="900"><path d="M786,497L746,400L701,471Z" fill="#f8f1e9" stroke="#f8f1e9" stroke-width="1.51"/><path d="M746,400L706,414L701,471Z" fill="#fff6e8" stroke="#fff6e8" stroke-width="1.51"/><path d="M904,416L788,331L746,400Z" fill="#eae5dc" stroke="#eae5dc" stroke-width="1.51"/><path d="M746,400L636,332L706,414Z" fill="#fff2e0" stroke="#fff2e0" stroke-width="1.51"/><path d="M701,471L680,569L786,497Z" fill="#e8e7e4" stroke="#e8e7e4" stroke-width="1.51"/><path d="M583,476L680,569L701,471Z" fill="#ebe7e0" stroke="#ebe7e0" stroke-width="1.51"/><path d="M786,497L904,416L746,400Z" fill="#eae8e3" stroke="#eae8e3" stroke-width="1.51"/><path d="M859,597L894,513L786,497Z" fill="#c3cdd9" stroke="#c3cdd9" stroke-width="1.51"/><path d="M894,513L904,416L786,497Z" fill="#d5dade" stroke="#d5dade" stroke-width="1.51"/><path d="M680,569L767,616L786,497Z" fill="#d1d7dd" stroke="#d1d7dd" stroke-width="1.51"/><path d="M788,331L636,332L746,400Z" fill="#fef1df" stroke="#fef1df" stroke-width="1.51"/><path d="M706,414L583,476L701,471Z" fill="#fef4e6" stroke="#fef4e6" stroke-width="1.51"/><path d="M568,405L583,476L706,414Z" fill="#fff2e0" stroke="#fff2e0" stroke-width="1.51"/><path d="M767,616L859,597L786,497Z" fill="#bfcbd8" stroke="#bfcbd8" stroke-width="1.51"/><path d="M636,332L568,405L706,414Z" fill="#fff1dc" stroke="#fff1dc" stroke-width="1.51"/><path d="M904,416L884,292L788,331Z" fill="#e0dcd5" stroke="#e0dcd5" stroke-width="1.51"/><path d="M788,331L671,201L636,332Z" fill="#ffeed5" stroke="#ffeed5" stroke-width="1.51"/><path d="M636,332L576,331L568,405Z" fill="#ffeed5" stroke="#ffeed5" stroke-width="1.51"/><path d="M671,201L576,331L636,332Z" fill="#ffebcf" stroke="#ffebcf" stroke-width="1.51"/><path d="M767,616L770,681L859,597Z" fill="#a9bdd1" stroke="#a9bdd1" stroke-width="1.51"/><path d="M661,709L770,681L767,616Z" fill="#abbfd1" stroke="#abbfd1" stroke-width="1.51"/><path d="M661,709L767,616L680,569Z" fill="#bcc9d5" stroke="#bcc9d5" stroke-width="1.51"/><path d="M894,513L986,537L904,416Z" fill="#c0ccd8" stroke="#c0ccd8" stroke-width="1.51"/><path d="M904,416L950,325L884,292Z" fill="#d3d3d0" stroke="#d3d3d0" stroke-width="1.51"/><path d="M859,597L945,584L894,513Z" fill="#abbed1" stroke="#abbed1" stroke-width="1.51"/><path d="M900,731L945,584L859,597Z" fill="#8eacca" stroke="#8eacca" stroke-width="1.51"/><path d="M1008,377L950,325L904,416Z" fill="#caced1" stroke="#caced1" stroke-width="1.51"/><path d="M583,476L547,584L680,569Z" fill="#dddbd7" stroke="#dddbd7" stroke-width="1.51"/><path d="M462,515L547,584L583,476Z" fill="#e4ded4" stroke="#e4ded4" stroke-width="1.51"/><path d="M462,515L583,476L568,405Z" fill="#faeddb" stroke="#faeddb" stroke-width="1.51"/><path d="M945,584L986,537L894,513Z" fill="#a9bdd1" stroke="#a9bdd1" stroke-width="1.51"/><path d="M884,292L787,198L788,331Z" fill="#e9dece" stroke="#e9dece" stroke-width="1.51"/><path d="M836,187L787,198L884,292Z" fill="#e6d9c7" stroke="#e6d9c7" stroke-width="1.51"/><path d="M787,198L671,201L788,331Z" fill="#f9e8cf" stroke="#f9e8cf" stroke-width="1.51"/><path d="M986,537L1008,377L904,416Z" fill="#c6d0d9" stroke="#c6d0d9" stroke-width="1.51"/><path d="M547,584L661,709L680,569Z" fill="#c1c9d1" stroke="#c1c9d1" stroke-width="1.51"/><path d="M576,331L489,364L568,405Z" fill="#ffedd2" stroke="#ffedd2" stroke-width="1.51"/><path d="M472,270L489,364L576,331Z" fill="#ffeaca" stroke="#ffeaca" stroke-width="1.51"/><path d="M594,76L578,159L671,201Z" fill="#f3d8b3" stroke="#f3d8b3" stroke-width="1.51"/><path d="M1003,190L836,187L884,292Z" fill="#d6cec2" stroke="#d6cec2" stroke-width="1.51"/><path d="M1003,190L884,292L950,325Z" fill="#cdcac5" stroke="#cdcac5" stroke-width="1.51"/><path d="M489,364L462,515L568,405Z" fill="#ffefd7" stroke="#ffefd7" stroke-width="1.51"/><path d="M547,584L581,737L661,709Z" fill="#adbcc8" stroke="#adbcc8" stroke-width="1.51"/><path d="M986,537L1059,500L1008,377Z" fill="#b2c3d4" stroke="#b2c3d4" stroke-width="1.51"/><path d="M1067,585L1059,500L986,537Z" fill="#93b0cb" stroke="#93b0cb" stroke-width="1.51"/><path d="M770,681L900,731L859,597Z" fill="#90adca" stroke="#90adca" stroke-width="1.51"/><path d="M945,584L1067,585L986,537Z" fill="#91aeca" stroke="#91aeca" stroke-width="1.51"/><path d="M762,798L900,731L770,681Z" fill="#a6bed4" stroke="#a6bed4" stroke-width="1.51"/><path d="M1008,377L1040,325L950,325Z" fill="#c0c6cb" stroke="#c0c6cb" stroke-width="1.51"/><path d="M1095,388L1040,325L1008,377Z" fill="#b5bfca" stroke="#b5bfca" stroke-width="1.51"/><path d="M462,515L481,620L547,584Z" fill="#d3d1cc" stroke="#d3d1cc" stroke-width="1.51"/><path d="M661,709L762,798L770,681Z" fill="#b7c8d8" stroke="#b7c8d8" stroke-width="1.51"/><path d="M481,620L581,737L547,584Z" fill="#b8c0c7" stroke="#b8c0c7" stroke-width="1.51"/><path d="M900,731L944,729L945,584Z" fill="#79a1c4" stroke="#79a1c4" stroke-width="1.51"/><path d="M361,410L386,524L462,515Z" fill="#f4e4cf" stroke="#f4e4cf" stroke-width="1.51"/><path d="M495,226L472,270L576,331Z" fill="#ffe7c4" stroke="#ffe7c4" stroke-width="1.51"/><path d="M1060,732L1067,585L945,584Z" fill="#719bc1" stroke="#719bc1" stroke-width="1.51"/><path d="M671,201L578,159L576,331Z" fill="#ffe8c6" stroke="#ffe8c6" stroke-width="1.51"/><path d="M788,95L671,201L787,198Z" fill="#f0dbbe" stroke="#f0dbbe" stroke-width="1.51"/><path d="M578,159L495,226L576,331Z" fill="#ffe6c2" stroke="#ffe6c2" stroke-width="1.51"/><path d="M675,834L762,798L661,709Z" fill="#c7d4de" stroke="#c7d4de" stroke-width="1.51"/><path d="M900,731L903,780L944,729Z" fill="#8fb0ce" stroke="#8fb0ce" stroke-width="1.51"/><path d="M1059,500L1095,388L1008,377Z" fill="#b2c1d0" stroke="#b2c1d0" stroke-width="1.51"/><path d="M1173,487L1095,388L1059,500Z" fill="#adc1d3" stroke="#adc1d3" stroke-width="1.51"/><path d="M944,729L1060,732L945,584Z" fill="#6b99c0" stroke="#6b99c0" stroke-width="1.51"/><path d="M762,798L903,780L900,731Z" fill="#a4bed5" stroke="#a4bed5" stroke-width="1.51"/><path d="M836,187L788,95L787,198Z" fill="#e4d2b9" stroke="#e4d2b9" stroke-width="1.51"/><path d="M894,90L788,95L836,187Z" fill="#d7c5ae" stroke="#d7c5ae" stroke-width="1.51"/><path d="M1040,325L1003,190L950,325Z" fill="#c1c3c3" stroke="#c1c3c3" stroke-width="1.51"/><path d="M1090,229L1003,190L1040,325Z" fill="#b7babc" stroke="#b7babc" stroke-width="1.51"/><path d="M462,515L372,576L481,620Z" fill="#d5d0c7" stroke="#d5d0c7" stroke-width="1.51"/><path d="M481,620L482,725L581,737Z" fill="#b3bcc4" stroke="#b3bcc4" stroke-width="1.51"/><path d="M361,410L462,515L489,364Z" fill="#ffedd2" stroke="#ffedd2" stroke-width="1.51"/><path d="M581,737L594,804L661,709Z" fill="#c0cbd3" stroke="#c0cbd3" stroke-width="1.51"/><path d="M379,668L482,725L481,620Z" fill="#b0b8be" stroke="#b0b8be" stroke-width="1.51"/><path d="M486,786L594,804L581,737Z" fill="#c8ced3" stroke="#c8ced3" stroke-width="1.51"/><path d="M594,804L675,834L661,709Z" fill="#c8d3da" stroke="#c8d3da" stroke-width="1.51"/><path d="M762,798L764,867L903,780Z" fill="#bccede" stroke="#bccede" stroke-width="1.51"/><path d="M1003,190L894,90L836,187Z" fill="#cbc0b1" stroke="#cbc0b1" stroke-width="1.51"/><path d="M370,321L361,410L489,364Z" fill="#ffe8c7" stroke="#ffe8c7" stroke-width="1.51"/><path d="M370,321L489,364L472,270Z" fill="#ffe7c4" stroke="#ffe7c4" stroke-width="1.51"/><path d="M788,95L705,61L671,201Z" fill="#f0d7b5" stroke="#f0d7b5" stroke-width="1.51"/><path d="M781,-11L705,61L788,95Z" fill="#ddc3a2" stroke="#ddc3a2" stroke-width="1.51"/><path d="M386,524L372,576L462,515Z" fill="#e0d7c8" stroke="#e0d7c8" stroke-width="1.51"/><path d="M248,504L372,576L386,524Z" fill="#dfd3c2" stroke="#dfd3c2" stroke-width="1.51"/><path d="M380,169L370,321L472,270Z" fill="#ffe3b9" stroke="#ffe3b9" stroke-width="1.51"/><path d="M380,169L472,270L495,226Z" fill="#ffe2b8" stroke="#ffe2b8" stroke-width="1.51"/><path d="M1176,293L1090,229L1040,325Z" fill="#b2b9bf" stroke="#b2b9bf" stroke-width="1.51"/><path d="M1003,190L972,103L894,90Z" fill="#beb4a8" stroke="#beb4a8" stroke-width="1.51"/><path d="M578,159L467,88L495,226Z" fill="#f5d8ae" stroke="#f5d8ae" stroke-width="1.51"/><path d="M705,61L594,76L671,201Z" fill="#efd4af" stroke="#efd4af" stroke-width="1.51"/><path d="M675,834L764,867L762,798Z" fill="#d2dde6" stroke="#d2dde6" stroke-width="1.51"/><path d="M637,901L764,867L675,834Z" fill="#dfe5ea" stroke="#dfe5ea" stroke-width="1.51"/><path d="M1111,112L972,103L1003,190Z" fill="#afaba5" stroke="#afaba5" stroke-width="1.51"/><path d="M1067,585L1173,487L1059,500Z" fill="#92b0cb" stroke="#92b0cb" stroke-width="1.51"/><path d="M948,832L1060,732L944,729Z" fill="#83a9cb" stroke="#83a9cb" stroke-width="1.51"/><path d="M948,832L944,729L903,780Z" fill="#94b4d1" stroke="#94b4d1" stroke-width="1.51"/><path d="M1173,630L1173,487L1067,585Z" fill="#88aaca" stroke="#88aaca" stroke-width="1.51"/><path d="M1095,388L1176,293L1040,325Z" fill="#b1bcc6" stroke="#b1bcc6" stroke-width="1.51"/><path d="M837,936L948,832L903,780Z" fill="#b0c7dc" stroke="#b0c7dc" stroke-width="1.51"/><path d="M594,804L637,901L675,834Z" fill="#dae0e2" stroke="#dae0e2" stroke-width="1.51"/><path d="M482,725L486,786L581,737Z" fill="#c1c8cc" stroke="#c1c8cc" stroke-width="1.51"/><path d="M337,827L486,786L482,725Z" fill="#caccca" stroke="#caccca" stroke-width="1.51"/><path d="M372,576L379,668L481,620Z" fill="#c2c2c0" stroke="#c2c2c0" stroke-width="1.51"/><path d="M972,103L887,26L894,90Z" fill="#bfb09e" stroke="#bfb09e" stroke-width="1.51"/><path d="M894,90L887,26L788,95Z" fill="#ccb8a1" stroke="#ccb8a1" stroke-width="1.51"/><path d="M633,-14L576,10L594,76Z" fill="#e1c196" stroke="#e1c196" stroke-width="1.51"/><path d="M1060,732L1148,674L1067,585Z" fill="#558ebb" stroke="#558ebb" stroke-width="1.51"/><path d="M1158,809L1148,674L1060,732Z" fill="#699bc4" stroke="#699bc4" stroke-width="1.51"/><path d="M1090,229L1111,112L1003,190Z" fill="#acacac" stroke="#acacac" stroke-width="1.51"/><path d="M1210,385L1176,293L1095,388Z" fill="#bac4cd" stroke="#bac4cd" stroke-width="1.51"/><path d="M1148,674L1173,630L1067,585Z" fill="#6c9ac1" stroke="#6c9ac1" stroke-width="1.51"/><path d="M1173,487L1210,385L1095,388Z" fill="#b9c8d4" stroke="#b9c8d4" stroke-width="1.51"/><path d="M556,921L637,901L594,804Z" fill="#e1e4e3" stroke="#e1e4e3" stroke-width="1.51"/><path d="M957,926L1072,822L948,832Z" fill="#9bbbd7" stroke="#9bbbd7" stroke-width="1.51"/><path d="M1239,496L1210,385L1173,487Z" fill="#bfcedc" stroke="#bfcedc" stroke-width="1.51"/><path d="M594,76L467,88L578,159Z" fill="#edcfa4" stroke="#edcfa4" stroke-width="1.51"/><path d="M576,10L467,88L594,76Z" fill="#e6c699" stroke="#e6c699" stroke-width="1.51"/><path d="M361,410L248,504L386,524Z" fill="#f3e0c7" stroke="#f3e0c7" stroke-width="1.51"/><path d="M242,634L299,726L379,668Z" fill="#acaeae" stroke="#acaeae" stroke-width="1.51"/><path d="M370,321L294,378L361,410Z" fill="#fde5c2" stroke="#fde5c2" stroke-width="1.51"/><path d="M300,305L294,378L370,321Z" fill="#fce1ba" stroke="#fce1ba" stroke-width="1.51"/><path d="M887,26L781,-11L788,95Z" fill="#cfb89b" stroke="#cfb89b" stroke-width="1.51"/><path d="M467,88L380,169L495,226Z" fill="#f5d6aa" stroke="#f5d6aa" stroke-width="1.51"/><path d="M1176,293L1134,178L1090,229Z" fill="#b8bbbc" stroke="#b8bbbc" stroke-width="1.51"/><path d="M972,103L970,-10L887,26Z" fill="#b5a695" stroke="#b5a695" stroke-width="1.51"/><path d="M1111,112L1134,178L1172,109Z" fill="#adaaa6" stroke="#adaaa6" stroke-width="1.51"/><path d="M380,169L300,305L370,321Z" fill="#fee1b5" stroke="#fee1b5" stroke-width="1.51"/><path d="M633,-14L594,76L705,61Z" fill="#e4c69d" stroke="#e4c69d" stroke-width="1.51"/><path d="M781,-11L633,-14L705,61Z" fill="#e0c29b" stroke="#e0c29b" stroke-width="1.51"/><path d="M948,832L1072,822L1060,732Z" fill="#81a9cc" stroke="#81a9cc" stroke-width="1.51"/><path d="M1277,724L1269,590L1173,630Z" fill="#78a3c8" stroke="#78a3c8" stroke-width="1.51"/><path d="M837,936L903,780L764,867Z" fill="#c2d3e2" stroke="#c2d3e2" stroke-width="1.51"/><path d="M1173,630L1239,496L1173,487Z" fill="#9db8d1" stroke="#9db8d1" stroke-width="1.51"/><path d="M732,1040L837,936L764,867Z" fill="#d9e4ec" stroke="#d9e4ec" stroke-width="1.51"/><path d="M1134,178L1111,112L1090,229Z" fill="#aeaeac" stroke="#aeaeac" stroke-width="1.51"/><path d="M1241,261L1134,178L1176,293Z" fill="#c0c2c1" stroke="#c0c2c1" stroke-width="1.51"/><path d="M472,886L556,921L594,804Z" fill="#e0e1de" stroke="#e0e1de" stroke-width="1.51"/><path d="M796,1092L899,997L837,936Z" fill="#cadae7" stroke="#cadae7" stroke-width="1.51"/><path d="M472,886L594,804L486,786Z" fill="#d5d7d6" stroke="#d5d7d6" stroke-width="1.51"/><path d="M195,511L248,504L190,391Z" fill="#ebd4b6" stroke="#ebd4b6" stroke-width="1.51"/><path d="M294,378L248,504L361,410Z" fill="#fae3c3" stroke="#fae3c3" stroke-width="1.51"/><path d="M364,873L472,886L486,786Z" fill="#dbdad3" stroke="#dbdad3" stroke-width="1.51"/><path d="M1065,-7L970,-10L972,103Z" fill="#a79b8e" stroke="#a79b8e" stroke-width="1.51"/><path d="M887,26L801,-78L781,-11Z" fill="#c8b193" stroke="#c8b193" stroke-width="1.51"/><path d="M781,-11L670,-144L633,-14Z" fill="#debf97" stroke="#debf97" stroke-width="1.51"/><path d="M837,936L957,926L948,832Z" fill="#b9cfe2" stroke="#b9cfe2" stroke-width="1.51"/><path d="M337,827L482,725L379,668Z" fill="#c0c2c1" stroke="#c0c2c1" stroke-width="1.51"/><path d="M1299,404L1241,261L1210,385Z" fill="#c9d0d4" stroke="#c9d0d4" stroke-width="1.51"/><path d="M1210,385L1241,261L1176,293Z" fill="#c3c8cc" stroke="#c3c8cc" stroke-width="1.51"/><path d="M242,634L379,668L372,576Z" fill="#bfbcb7" stroke="#bfbcb7" stroke-width="1.51"/><path d="M380,169L231,175L300,305Z" fill="#f8d7a7" stroke="#f8d7a7" stroke-width="1.51"/><path d="M190,391L248,504L294,378Z" fill="#f4dcba" stroke="#f4dcba" stroke-width="1.51"/><path d="M467,88L351,106L380,169Z" fill="#efcd9c" stroke="#efcd9c" stroke-width="1.51"/><path d="M384,-13L351,106L467,88Z" fill="#e5c28e" stroke="#e5c28e" stroke-width="1.51"/><path d="M1239,496L1299,404L1210,385Z" fill="#c8d3dd" stroke="#c8d3dd" stroke-width="1.51"/><path d="M1173,630L1269,590L1239,496Z" fill="#95b4d1" stroke="#95b4d1" stroke-width="1.51"/><path d="M1277,724L1173,630L1148,674Z" fill="#6598c2" stroke="#6598c2" stroke-width="1.51"/><path d="M937,-106L801,-78L887,26Z" fill="#bda98f" stroke="#bda98f" stroke-width="1.51"/><path d="M1072,822L1158,809L1060,732Z" fill="#73a2c8" stroke="#73a2c8" stroke-width="1.51"/><path d="M1099,913L1158,809L1072,822Z" fill="#87afd2" stroke="#87afd2" stroke-width="1.51"/><path d="M248,504L242,634L372,576Z" fill="#cec4b7" stroke="#cec4b7" stroke-width="1.51"/><path d="M1280,192L1172,109L1134,178Z" fill="#b9b6b0" stroke="#b9b6b0" stroke-width="1.51"/><path d="M1111,112L1065,-7L972,103Z" fill="#a29c94" stroke="#a29c94" stroke-width="1.51"/><path d="M1401,463L1299,404L1239,496Z" fill="#d1dce5" stroke="#d1dce5" stroke-width="1.51"/><path d="M970,-10L937,-106L887,26Z" fill="#b2a08c" stroke="#b2a08c" stroke-width="1.51"/><path d="M1172,-14L1065,-7L1111,112Z" fill="#9d958c" stroke="#9d958c" stroke-width="1.51"/><path d="M280,831L337,827L299,726Z" fill="#c9c6be" stroke="#c9c6be" stroke-width="1.51"/><path d="M299,726L337,827L379,668Z" fill="#bfbebc" stroke="#bfbebc" stroke-width="1.51"/><path d="M248,504L195,511L242,634Z" fill="#d0c2b0" stroke="#d0c2b0" stroke-width="1.51"/><path d="M190,391L294,378L300,305Z" fill="#f6dbb4" stroke="#f6dbb4" stroke-width="1.51"/><path d="M837,936L899,997L957,926Z" fill="#bdd2e3" stroke="#bdd2e3" stroke-width="1.51"/><path d="M957,926L1099,913L1072,822Z" fill="#96b9d7" stroke="#96b9d7" stroke-width="1.51"/><path d="M680,1014L764,867L637,901Z" fill="#e7ecee" stroke="#e7ecee" stroke-width="1.51"/><path d="M575,995L680,1014L637,901Z" fill="#e8eae9" stroke="#e8eae9" stroke-width="1.51"/><path d="M575,995L637,901L556,921Z" fill="#e8e9e6" stroke="#e8e9e6" stroke-width="1.51"/><path d="M575,995L556,921L448,1030Z" fill="#e8e7e1" stroke="#e8e7e1" stroke-width="1.51"/><path d="M576,10L467,-34L467,88Z" fill="#e0be8d" stroke="#e0be8d" stroke-width="1.51"/><path d="M568,-122L467,-34L576,10Z" fill="#ddba8b" stroke="#ddba8b" stroke-width="1.51"/><path d="M568,-122L576,10L633,-14Z" fill="#ddbc8f" stroke="#ddbc8f" stroke-width="1.51"/><path d="M137,288L190,391L300,305Z" fill="#f1d3a9" stroke="#f1d3a9" stroke-width="1.51"/><path d="M448,1030L556,921L472,886Z" fill="#e8e6de" stroke="#e8e6de" stroke-width="1.51"/><path d="M337,827L364,873L486,786Z" fill="#d7d4cd" stroke="#d7d4cd" stroke-width="1.51"/><path d="M998,1023L1099,913L957,926Z" fill="#a0bfdb" stroke="#a0bfdb" stroke-width="1.51"/><path d="M195,511L197,628L242,634Z" fill="#c1b6a9" stroke="#c1b6a9" stroke-width="1.51"/><path d="M242,634L196,737L299,726Z" fill="#adaba8" stroke="#adaba8" stroke-width="1.51"/><path d="M337,827L280,831L364,873Z" fill="#d8d2c7" stroke="#d8d2c7" stroke-width="1.51"/><path d="M196,737L197,628L45,689Z" fill="#a19d99" stroke="#a19d99" stroke-width="1.51"/><path d="M694,1111L732,1040L680,1014Z" fill="#e7edef" stroke="#e7edef" stroke-width="1.51"/><path d="M680,1014L732,1040L764,867Z" fill="#e6ecf0" stroke="#e6ecf0" stroke-width="1.51"/><path d="M1172,109L1172,-14L1111,112Z" fill="#a7a098" stroke="#a7a098" stroke-width="1.51"/><path d="M1241,261L1280,192L1134,178Z" fill="#c4c3be" stroke="#c4c3be" stroke-width="1.51"/><path d="M1343,288L1280,192L1241,261Z" fill="#d0cfca" stroke="#d0cfca" stroke-width="1.51"/><path d="M801,-78L670,-144L781,-11Z" fill="#d8bb97" stroke="#d8bb97" stroke-width="1.51"/><path d="M1099,-85L937,-106L970,-10Z" fill="#a39688" stroke="#a39688" stroke-width="1.51"/><path d="M1158,809L1277,724L1148,674Z" fill="#76a3c9" stroke="#76a3c9" stroke-width="1.51"/><path d="M1401,463L1383,386L1299,404Z" fill="#dae2e5" stroke="#dae2e5" stroke-width="1.51"/><path d="M1302,833L1277,724L1158,809Z" fill="#8eb4d5" stroke="#8eb4d5" stroke-width="1.51"/><path d="M351,106L231,175L380,169Z" fill="#f0cc9a" stroke="#f0cc9a" stroke-width="1.51"/><path d="M236,77L231,175L351,106Z" fill="#e6c18c" stroke="#e6c18c" stroke-width="1.51"/><path d="M467,-34L384,-13L467,88Z" fill="#deba86" stroke="#deba86" stroke-width="1.51"/><path d="M883,-141L670,-144L801,-78Z" fill="#d0b695" stroke="#d0b695" stroke-width="1.51"/><path d="M467,-34L448,-92L384,-13Z" fill="#dcb783" stroke="#dcb783" stroke-width="1.51"/><path d="M196,737L280,831L299,726Z" fill="#bebab3" stroke="#bebab3" stroke-width="1.51"/><path d="M346,986L448,1030L472,886Z" fill="#e9e4d9" stroke="#e9e4d9" stroke-width="1.51"/><path d="M670,-144L568,-122L633,-14Z" fill="#ddbd92" stroke="#ddbd92" stroke-width="1.51"/><path d="M231,175L203,201L300,305Z" fill="#f4d2a1" stroke="#f4d2a1" stroke-width="1.51"/><path d="M198,79L203,201L231,175Z" fill="#e5c08a" stroke="#e5c08a" stroke-width="1.51"/><path d="M937,-106L883,-141L801,-78Z" fill="#bea98f" stroke="#bea98f" stroke-width="1.51"/><path d="M1299,404L1343,288L1241,261Z" fill="#d0d4d3" stroke="#d0d4d3" stroke-width="1.51"/><path d="M1383,386L1343,288L1299,404Z" fill="#d8dcdc" stroke="#d8dcdc" stroke-width="1.51"/><path d="M1099,913L1160,924L1158,809Z" fill="#96b9d9" stroke="#96b9d9" stroke-width="1.51"/><path d="M899,997L998,1023L957,926Z" fill="#b0c9df" stroke="#b0c9df" stroke-width="1.51"/><path d="M870,1109L998,1023L899,997Z" fill="#b7cee2" stroke="#b7cee2" stroke-width="1.51"/><path d="M1094,1020L1160,924L1099,913Z" fill="#97bbd9" stroke="#97bbd9" stroke-width="1.51"/><path d="M91,576L197,628L195,511Z" fill="#c3b5a4" stroke="#c3b5a4" stroke-width="1.51"/><path d="M197,628L196,737L242,634Z" fill="#a7a5a2" stroke="#a7a5a2" stroke-width="1.51"/><path d="M384,-13L236,77L351,106Z" fill="#e1bb85" stroke="#e1bb85" stroke-width="1.51"/><path d="M568,-122L448,-92L467,-34Z" fill="#ddb988" stroke="#ddb988" stroke-width="1.51"/><path d="M1065,-7L1099,-85L970,-10Z" fill="#9a9085" stroke="#9a9085" stroke-width="1.51"/><path d="M937,-106L1162,-134L883,-141Z" fill="#a59788" stroke="#a59788" stroke-width="1.51"/><path d="M1250,16L1172,-14L1172,109Z" fill="#aaa094" stroke="#aaa094" stroke-width="1.51"/><path d="M1309,112L1172,109L1280,192Z" fill="#c0b9b0" stroke="#c0b9b0" stroke-width="1.51"/><path d="M1401,463L1239,496L1269,590Z" fill="#b7cbdd" stroke="#b7cbdd" stroke-width="1.51"/><path d="M27,478L91,576L195,511Z" fill="#cfbba1" stroke="#cfbba1" stroke-width="1.51"/><path d="M203,201L137,288L300,305Z" fill="#f1d0a1" stroke="#f1d0a1" stroke-width="1.51"/><path d="M732,1040L796,1092L837,936Z" fill="#d7e2eb" stroke="#d7e2eb" stroke-width="1.51"/><path d="M694,1111L796,1092L732,1040Z" fill="#e2eaef" stroke="#e2eaef" stroke-width="1.51"/><path d="M203,201L65,163L137,288Z" fill="#e8c48f" stroke="#e8c48f" stroke-width="1.51"/><path d="M237,-25L236,77L384,-13Z" fill="#d7af76" stroke="#d7af76" stroke-width="1.51"/><path d="M1172,-14L1099,-85L1065,-7Z" fill="#988f85" stroke="#988f85" stroke-width="1.51"/><path d="M1395,583L1401,463L1269,590Z" fill="#b5cade" stroke="#b5cade" stroke-width="1.51"/><path d="M237,880L364,873L280,831Z" fill="#dad2c4" stroke="#dad2c4" stroke-width="1.51"/><path d="M346,986L472,886L364,873Z" fill="#e9e3d6" stroke="#e9e3d6" stroke-width="1.51"/><path d="M580,1115L694,1111L680,1014Z" fill="#e8ebeb" stroke="#e8ebeb" stroke-width="1.51"/><path d="M1412,160L1280,192L1343,288Z" fill="#d8d3c9" stroke="#d8d3c9" stroke-width="1.51"/><path d="M1412,160L1309,112L1280,192Z" fill="#cfc7ba" stroke="#cfc7ba" stroke-width="1.51"/><path d="M1172,-14L1162,-134L1099,-85Z" fill="#9d9288" stroke="#9d9288" stroke-width="1.51"/><path d="M1402,734L1395,583L1277,724Z" fill="#84add0" stroke="#84add0" stroke-width="1.51"/><path d="M1277,724L1395,583L1269,590Z" fill="#8cb0d0" stroke="#8cb0d0" stroke-width="1.51"/><path d="M580,1115L680,1014L575,995Z" fill="#e8eae8" stroke="#e8eae8" stroke-width="1.51"/><path d="M1289,893L1302,833L1158,809Z" fill="#9fc0dd" stroke="#9fc0dd" stroke-width="1.51"/><path d="M998,1023L1094,1020L1099,913Z" fill="#94b9d7" stroke="#94b9d7" stroke-width="1.51"/><path d="M1077,1127L1094,1020L998,1023Z" fill="#96bad8" stroke="#96bad8" stroke-width="1.51"/><path d="M448,-92L369,-85L384,-13Z" fill="#dcb780" stroke="#dcb780" stroke-width="1.51"/><path d="M280,-113L369,-85L448,-92Z" fill="#dcb57e" stroke="#dcb57e" stroke-width="1.51"/><path d="M280,-113L448,-92L568,-122Z" fill="#dcb783" stroke="#dcb783" stroke-width="1.51"/><path d="M1309,112L1250,16L1172,109Z" fill="#b6ada1" stroke="#b6ada1" stroke-width="1.51"/><path d="M796,1092L870,1109L899,997Z" fill="#c8d8e6" stroke="#c8d8e6" stroke-width="1.51"/><path d="M694,1111L870,1109L796,1092Z" fill="#d7e3eb" stroke="#d7e3eb" stroke-width="1.51"/><path d="M1289,893L1158,809L1160,924Z" fill="#9fc1dd" stroke="#9fc1dd" stroke-width="1.51"/><path d="M1094,1020L1182,966L1160,924Z" fill="#9cbedc" stroke="#9cbedc" stroke-width="1.51"/><path d="M169,831L237,880L280,831Z" fill="#d0c7b9" stroke="#d0c7b9" stroke-width="1.51"/><path d="M236,77L198,79L231,175Z" fill="#e0b982" stroke="#e0b982" stroke-width="1.51"/><path d="M237,-25L198,79L236,77Z" fill="#d5ad74" stroke="#d5ad74" stroke-width="1.51"/><path d="M237,880L346,986L364,873Z" fill="#e5dccd" stroke="#e5dccd" stroke-width="1.51"/><path d="M58,392L195,511L190,391Z" fill="#ecd1ac" stroke="#ecd1ac" stroke-width="1.51"/><path d="M196,737L169,831L280,831Z" fill="#c3bcb1" stroke="#c3bcb1" stroke-width="1.51"/><path d="M694,1111L981,1136L870,1109Z" fill="#c9d9e7" stroke="#c9d9e7" stroke-width="1.51"/><path d="M498,1125L580,1115L575,995Z" fill="#e8e8e3" stroke="#e8e8e3" stroke-width="1.51"/><path d="M498,1125L575,995L448,1030Z" fill="#e8e6df" stroke="#e8e6df" stroke-width="1.51"/><path d="M1302,833L1350,794L1277,724Z" fill="#98bbda" stroke="#98bbda" stroke-width="1.51"/><path d="M1336,897L1350,794L1302,833Z" fill="#abc9e3" stroke="#abc9e3" stroke-width="1.51"/><path d="M1182,966L1289,893L1160,924Z" fill="#a7c7e1" stroke="#a7c7e1" stroke-width="1.51"/><path d="M237,880L283,1012L346,986Z" fill="#e3d9c9" stroke="#e3d9c9" stroke-width="1.51"/><path d="M79,810L169,831L196,737Z" fill="#bcb3a6" stroke="#bcb3a6" stroke-width="1.51"/><path d="M137,288L58,392L190,391Z" fill="#e9caa0" stroke="#e9caa0" stroke-width="1.51"/><path d="M31,330L58,392L137,288Z" fill="#e4c396" stroke="#e4c396" stroke-width="1.51"/><path d="M1383,386L1448,386L1343,288Z" fill="#e0e2e0" stroke="#e0e2e0" stroke-width="1.51"/><path d="M1401,463L1448,386L1383,386Z" fill="#e3e7e9" stroke="#e3e7e9" stroke-width="1.51"/><path d="M1472,530L1448,386L1401,463Z" fill="#e4ebef" stroke="#e4ebef" stroke-width="1.51"/><path d="M1472,530L1401,463L1395,583Z" fill="#c8d8e6" stroke="#c8d8e6" stroke-width="1.51"/><path d="M-19,270L31,330L137,288Z" fill="#e1be8d" stroke="#e1be8d" stroke-width="1.51"/><path d="M369,-85L237,-25L384,-13Z" fill="#d9b279" stroke="#d9b279" stroke-width="1.51"/><path d="M1350,794L1402,734L1277,724Z" fill="#95b9d8" stroke="#95b9d8" stroke-width="1.51"/><path d="M1504,814L1402,734L1350,794Z" fill="#aac8e2" stroke="#aac8e2" stroke-width="1.51"/><path d="M1294,-120L1172,-14L1250,16Z" fill="#ab9e8f" stroke="#ab9e8f" stroke-width="1.51"/><path d="M1294,-120L1162,-134L1172,-14Z" fill="#a79a8d" stroke="#a79a8d" stroke-width="1.51"/><path d="M1099,-85L1162,-134L937,-106Z" fill="#968d84" stroke="#968d84" stroke-width="1.51"/><path d="M351,1133L498,1125L448,1030Z" fill="#e9e4d9" stroke="#e9e4d9" stroke-width="1.51"/><path d="M580,1115L498,1125L694,1111Z" fill="#e8e9e6" stroke="#e8e9e6" stroke-width="1.51"/><path d="M351,1133L448,1030L346,986Z" fill="#e9e2d5" stroke="#e9e2d5" stroke-width="1.51"/><path d="M1297,988L1336,897L1289,893Z" fill="#b8d3e9" stroke="#b8d3e9" stroke-width="1.51"/><path d="M1094,1020L1142,1136L1182,966Z" fill="#9bbddb" stroke="#9bbddb" stroke-width="1.51"/><path d="M870,1109L981,1136L998,1023Z" fill="#b1cae0" stroke="#b1cae0" stroke-width="1.51"/><path d="M498,1125L981,1136L694,1111Z" fill="#e6edf0" stroke="#e6edf0" stroke-width="1.51"/><path d="M1309,112L1387,15L1250,16Z" fill="#bdb0a0" stroke="#bdb0a0" stroke-width="1.51"/><path d="M1498,292L1412,160L1343,288Z" fill="#e5e0d4" stroke="#e5e0d4" stroke-width="1.51"/><path d="M1514,633L1472,530L1395,583Z" fill="#b5cce1" stroke="#b5cce1" stroke-width="1.51"/><path d="M1448,386L1498,292L1343,288Z" fill="#e6e5df" stroke="#e6e5df" stroke-width="1.51"/><path d="M91,576L45,689L197,628Z" fill="#aaa197" stroke="#aaa197" stroke-width="1.51"/><path d="M58,392L27,478L195,511Z" fill="#e3c9a6" stroke="#e3c9a6" stroke-width="1.51"/><path d="M136,937L283,1012L237,880Z" fill="#ddd1bf" stroke="#ddd1bf" stroke-width="1.51"/><path d="M58,392L-63,366L27,478Z" fill="#debf95" stroke="#debf95" stroke-width="1.51"/><path d="M65,163L203,201L198,79Z" fill="#dfb882" stroke="#dfb882" stroke-width="1.51"/><path d="M1297,988L1289,893L1182,966Z" fill="#afcce5" stroke="#afcce5" stroke-width="1.51"/><path d="M1289,893L1336,897L1302,833Z" fill="#b1cde6" stroke="#b1cde6" stroke-width="1.51"/><path d="M369,-85L280,-113L237,-25Z" fill="#d5ad74" stroke="#d5ad74" stroke-width="1.51"/><path d="M45,133L65,163L198,79Z" fill="#d7ae75" stroke="#d7ae75" stroke-width="1.51"/><path d="M670,-144L280,-113L568,-122Z" fill="#ddb989" stroke="#ddb989" stroke-width="1.51"/><path d="M1504,814L1452,709L1402,734Z" fill="#a6c6e1" stroke="#a6c6e1" stroke-width="1.51"/><path d="M1402,734L1452,709L1395,583Z" fill="#8cb3d4" stroke="#8cb3d4" stroke-width="1.51"/><path d="M-68,626L45,689L91,576Z" fill="#a4988a" stroke="#a4988a" stroke-width="1.51"/><path d="M169,831L136,937L237,880Z" fill="#d5c9b7" stroke="#d5c9b7" stroke-width="1.51"/><path d="M142,11L198,79L237,-25Z" fill="#cfa66b" stroke="#cfa66b" stroke-width="1.51"/><path d="M981,1136L1077,1127L998,1023Z" fill="#a0bfdb" stroke="#a0bfdb" stroke-width="1.51"/><path d="M153,-106L142,11L237,-25Z" fill="#caa064" stroke="#caa064" stroke-width="1.51"/><path d="M45,689L79,810L196,737Z" fill="#aca49b" stroke="#aca49b" stroke-width="1.51"/><path d="M1474,872L1504,814L1350,794Z" fill="#bad5eb" stroke="#bad5eb" stroke-width="1.51"/><path d="M1298,1116L1297,988L1182,966Z" fill="#afcde5" stroke="#afcde5" stroke-width="1.51"/><path d="M1566,430L1498,292L1448,386Z" fill="#e8e9e6" stroke="#e8e9e6" stroke-width="1.51"/><path d="M1412,160L1411,65L1309,112Z" fill="#d0c4b3" stroke="#d0c4b3" stroke-width="1.51"/><path d="M1506,60L1411,65L1412,160Z" fill="#d7c9b4" stroke="#d7c9b4" stroke-width="1.51"/><path d="M1411,65L1387,15L1309,112Z" fill="#c8baa7" stroke="#c8baa7" stroke-width="1.51"/><path d="M142,11L45,133L198,79Z" fill="#d1a86d" stroke="#d1a86d" stroke-width="1.51"/><path d="M65,163L-19,270L137,288Z" fill="#e2bd88" stroke="#e2bd88" stroke-width="1.51"/><path d="M1472,530L1566,430L1448,386Z" fill="#e7edf0" stroke="#e7edf0" stroke-width="1.51"/><path d="M1452,709L1514,633L1395,583Z" fill="#9ebeda" stroke="#9ebeda" stroke-width="1.51"/><path d="M1575,587L1514,633L1609,671Z" fill="#a2c1db" stroke="#a2c1db" stroke-width="1.51"/><path d="M45,689L-2,835L79,810Z" fill="#afa395" stroke="#afa395" stroke-width="1.51"/><path d="M27,478L-26,534L91,576Z" fill="#c6b095" stroke="#c6b095" stroke-width="1.51"/><path d="M-130,467L-26,534L27,478Z" fill="#cfb595" stroke="#cfb595" stroke-width="1.51"/><path d="M-63,366L58,392L31,330Z" fill="#debd8f" stroke="#debd8f" stroke-width="1.51"/><path d="M79,810L136,937L169,831Z" fill="#cbbeac" stroke="#cbbeac" stroke-width="1.51"/><path d="M283,1012L351,1133L346,986Z" fill="#e7decf" stroke="#e7decf" stroke-width="1.51"/><path d="M1077,1127L1142,1136L1094,1020Z" fill="#95b9d8" stroke="#95b9d8" stroke-width="1.51"/><path d="M981,1136L1142,1136L1077,1127Z" fill="#94b8d7" stroke="#94b8d7" stroke-width="1.51"/><path d="M244,1098L351,1133L283,1012Z" fill="#e4dac9" stroke="#e4dac9" stroke-width="1.51"/><path d="M498,1125L351,1133L981,1136Z" fill="#e8eae7" stroke="#e8eae7" stroke-width="1.51"/><path d="M1387,15L1294,-120L1250,16Z" fill="#b6a794" stroke="#b6a794" stroke-width="1.51"/><path d="M1498,292L1510,227L1412,160Z" fill="#e9e2d4" stroke="#e9e2d4" stroke-width="1.51"/><path d="M1510,-81L1361,-138L1387,15Z" fill="#c6b59c" stroke="#c6b59c" stroke-width="1.51"/><path d="M1613,268L1510,227L1498,292Z" fill="#e9e4d8" stroke="#e9e4d8" stroke-width="1.51"/><path d="M-63,174L-19,270L65,163Z" fill="#d8b178" stroke="#d8b178" stroke-width="1.51"/><path d="M1592,520L1566,430L1472,530Z" fill="#d7e2eb" stroke="#d7e2eb" stroke-width="1.51"/><path d="M136,937L184,1040L283,1012Z" fill="#dbcfbc" stroke="#dbcfbc" stroke-width="1.51"/><path d="M-19,270L-63,366L31,330Z" fill="#ddba89" stroke="#ddba89" stroke-width="1.51"/><path d="M45,133L-63,174L65,163Z" fill="#d3aa70" stroke="#d3aa70" stroke-width="1.51"/><path d="M-19,270L-101,223L-63,366Z" fill="#dcb885" stroke="#dcb885" stroke-width="1.51"/><path d="M142,11L56,6L45,133Z" fill="#c89e61" stroke="#c89e61" stroke-width="1.51"/><path d="M280,-113L153,-106L237,-25Z" fill="#cea56a" stroke="#cea56a" stroke-width="1.51"/><path d="M28,-123L153,-106L280,-113Z" fill="#c89d60" stroke="#c89d60" stroke-width="1.51"/><path d="M184,1040L244,1098L283,1012Z" fill="#dfd3c1" stroke="#dfd3c1" stroke-width="1.51"/><path d="M1297,988L1353,1016L1336,897Z" fill="#bbd5eb" stroke="#bbd5eb" stroke-width="1.51"/><path d="M1298,1116L1353,1016L1297,988Z" fill="#b9d4ea" stroke="#b9d4ea" stroke-width="1.51"/><path d="M153,-106L56,6L142,11Z" fill="#c4995b" stroke="#c4995b" stroke-width="1.51"/><path d="M56,6L2,97L45,133Z" fill="#c89e61" stroke="#c89e61" stroke-width="1.51"/><path d="M1514,633L1575,587L1472,530Z" fill="#b5cce1" stroke="#b5cce1" stroke-width="1.51"/><path d="M1566,791L1514,633L1452,709Z" fill="#9abddb" stroke="#9abddb" stroke-width="1.51"/><path d="M1474,872L1350,794L1336,897Z" fill="#b9d3ea" stroke="#b9d3ea" stroke-width="1.51"/><path d="M1442,1009L1474,872L1336,897Z" fill="#cae1f3" stroke="#cae1f3" stroke-width="1.51"/><path d="M-26,534L-68,626L91,576Z" fill="#b3a18c" stroke="#b3a18c" stroke-width="1.51"/><path d="M79,810L30,934L136,937Z" fill="#cfbfa9" stroke="#cfbfa9" stroke-width="1.51"/><path d="M136,937L134,1074L184,1040Z" fill="#d7c9b4" stroke="#d7c9b4" stroke-width="1.51"/><path d="M-134,623L-68,626L-26,534Z" fill="#ae9e8b" stroke="#ae9e8b" stroke-width="1.51"/><path d="M1575,587L1592,520L1472,530Z" fill="#c3d5e5" stroke="#c3d5e5" stroke-width="1.51"/><path d="M1564,80L1506,60L1510,227Z" fill="#dbcebb" stroke="#dbcebb" stroke-width="1.51"/><path d="M-57,718L-2,835L45,689Z" fill="#a4998b" stroke="#a4998b" stroke-width="1.51"/><path d="M1387,15L1361,-138L1294,-120Z" fill="#bbab97" stroke="#bbab97" stroke-width="1.51"/><path d="M1294,-120L1361,-138L1162,-134Z" fill="#b0a291" stroke="#b0a291" stroke-width="1.51"/><path d="M1162,-134L1361,-138L883,-141Z" fill="#9b9187" stroke="#9b9187" stroke-width="1.51"/><path d="M883,-141L1570,-143L670,-144Z" fill="#9b9085" stroke="#9b9085" stroke-width="1.51"/><path d="M1503,30L1387,15L1411,65Z" fill="#cebda6" stroke="#cebda6" stroke-width="1.51"/><path d="M1613,268L1498,292L1566,430Z" fill="#e8e7e1" stroke="#e8e7e1" stroke-width="1.51"/><path d="M1510,227L1506,60L1412,160Z" fill="#dfd3c1" stroke="#dfd3c1" stroke-width="1.51"/><path d="M-68,626L-57,718L45,689Z" fill="#948b83" stroke="#948b83" stroke-width="1.51"/><path d="M1142,1136L1298,1116L1182,966Z" fill="#a6c6e1" stroke="#a6c6e1" stroke-width="1.51"/><path d="M1353,1016L1442,1009L1336,897Z" fill="#c4dcef" stroke="#c4dcef" stroke-width="1.51"/><path d="M1506,60L1503,30L1411,65Z" fill="#d1c1aa" stroke="#d1c1aa" stroke-width="1.51"/><path d="M1564,80L1503,30L1506,60Z" fill="#d2c1ab" stroke="#d2c1ab" stroke-width="1.51"/><path d="M-129,85L-63,174L2,97Z" fill="#cba165" stroke="#cba165" stroke-width="1.51"/><path d="M2,97L-63,174L45,133Z" fill="#cea469" stroke="#cea469" stroke-width="1.51"/><path d="M-63,366L-130,467L27,478Z" fill="#dec097" stroke="#dec097" stroke-width="1.51"/><path d="M-2,835L30,934L79,810Z" fill="#c3b39f" stroke="#c3b39f" stroke-width="1.51"/><path d="M184,1040L134,1074L244,1098Z" fill="#dacdba" stroke="#dacdba" stroke-width="1.51"/><path d="M-74,894L30,934L-2,835Z" fill="#c7b49d" stroke="#c7b49d" stroke-width="1.51"/><path d="M1298,1116L1361,1082L1353,1016Z" fill="#bdd6ec" stroke="#bdd6ec" stroke-width="1.51"/><path d="M59,1043L134,1074L136,937Z" fill="#d3c4ae" stroke="#d3c4ae" stroke-width="1.51"/><path d="M244,1098L102,1120L351,1133Z" fill="#ded2c0" stroke="#ded2c0" stroke-width="1.51"/><path d="M1661,284L1613,268L1566,430Z" fill="#e8e7e1" stroke="#e8e7e1" stroke-width="1.51"/><path d="M1569,882L1504,814L1474,872Z" fill="#c2dbef" stroke="#c2dbef" stroke-width="1.51"/><path d="M1569,882L1566,791L1504,814Z" fill="#bbd5eb" stroke="#bbd5eb" stroke-width="1.51"/><path d="M1504,814L1566,791L1452,709Z" fill="#abc9e3" stroke="#abc9e3" stroke-width="1.51"/><path d="M1575,587L1642,597L1592,520Z" fill="#bad0e2" stroke="#bad0e2" stroke-width="1.51"/><path d="M-177,390L-130,467L-63,366Z" fill="#debe94" stroke="#debe94" stroke-width="1.51"/><path d="M-68,626L-154,698L-57,718Z" fill="#948c84" stroke="#948c84" stroke-width="1.51"/><path d="M1592,520L1657,485L1566,430Z" fill="#dce6ed" stroke="#dce6ed" stroke-width="1.51"/><path d="M1566,791L1609,671L1514,633Z" fill="#97bbd9" stroke="#97bbd9" stroke-width="1.51"/><path d="M-63,174L-101,223L-19,270Z" fill="#dbb57d" stroke="#dbb57d" stroke-width="1.51"/><path d="M-129,85L-101,223L-63,174Z" fill="#d2a96f" stroke="#d2a96f" stroke-width="1.51"/><path d="M1361,1082L1442,1009L1353,1016Z" fill="#c5ddf0" stroke="#c5ddf0" stroke-width="1.51"/><path d="M1613,268L1603,197L1510,227Z" fill="#e9e2d4" stroke="#e9e2d4" stroke-width="1.51"/><path d="M1503,30L1510,-81L1387,15Z" fill="#cab79e" stroke="#cab79e" stroke-width="1.51"/><path d="M1603,197L1564,80L1510,227Z" fill="#e1d7c6" stroke="#e1d7c6" stroke-width="1.51"/><path d="M1609,671L1642,597L1575,587Z" fill="#a7c3dd" stroke="#a7c3dd" stroke-width="1.51"/><path d="M1651,664L1642,597L1609,671Z" fill="#9dbdda" stroke="#9dbdda" stroke-width="1.51"/><path d="M-130,467L-134,623L-26,534Z" fill="#bfaa90" stroke="#bfaa90" stroke-width="1.51"/><path d="M-127,839L-74,894L-2,835Z" fill="#bfae99" stroke="#bfae99" stroke-width="1.51"/><path d="M1642,597L1657,485L1592,520Z" fill="#c8d8e6" stroke="#c8d8e6" stroke-width="1.51"/><path d="M1613,268L1661,284L1603,197Z" fill="#e9e3d7" stroke="#e9e3d7" stroke-width="1.51"/><path d="M30,934L59,1043L136,937Z" fill="#d0c0a9" stroke="#d0c0a9" stroke-width="1.51"/><path d="M-56,1014L59,1043L30,934Z" fill="#cbb8a0" stroke="#cbb8a0" stroke-width="1.51"/><path d="M56,6L-24,-36L2,97Z" fill="#bd9151" stroke="#bd9151" stroke-width="1.51"/><path d="M28,-123L-24,-36L56,6Z" fill="#ba8e4e" stroke="#ba8e4e" stroke-width="1.51"/><path d="M1710,793L1651,664L1609,671Z" fill="#9abddb" stroke="#9abddb" stroke-width="1.51"/><path d="M1551,990L1569,882L1474,872Z" fill="#cee4f5" stroke="#cee4f5" stroke-width="1.51"/><path d="M1642,597L1651,664L1657,485Z" fill="#b5cce1" stroke="#b5cce1" stroke-width="1.51"/><path d="M1710,793L1609,671L1566,791Z" fill="#a6c6e1" stroke="#a6c6e1" stroke-width="1.51"/><path d="M1603,197L1643,160L1564,80Z" fill="#ded3c1" stroke="#ded3c1" stroke-width="1.51"/><path d="M1679,424L1661,284L1566,430Z" fill="#e8eae7" stroke="#e8eae7" stroke-width="1.51"/><path d="M153,-106L28,-123L56,6Z" fill="#c09556" stroke="#c09556" stroke-width="1.51"/><path d="M670,-144L28,-123L280,-113Z" fill="#d8b179" stroke="#d8b179" stroke-width="1.51"/><path d="M1710,793L1679,424L1657,485Z" fill="#bbd0e3" stroke="#bbd0e3" stroke-width="1.51"/><path d="M1657,485L1679,424L1566,430Z" fill="#e7edf0" stroke="#e7edf0" stroke-width="1.51"/><path d="M1579,-33L1510,-81L1503,30Z" fill="#cab79e" stroke="#cab79e" stroke-width="1.51"/><path d="M1579,-33L1503,30L1564,80Z" fill="#cdbca4" stroke="#cdbca4" stroke-width="1.51"/><path d="M-101,223L-168,318L-63,366Z" fill="#dcb987" stroke="#dcb987" stroke-width="1.51"/><path d="M-130,467L-177,390L-134,623Z" fill="#cfb595" stroke="#cfb595" stroke-width="1.51"/><path d="M-129,85L-168,318L-101,223Z" fill="#d9b27a" stroke="#d9b27a" stroke-width="1.51"/><path d="M134,1074L102,1120L244,1098Z" fill="#d8cab6" stroke="#d8cab6" stroke-width="1.51"/><path d="M59,1043L102,1120L134,1074Z" fill="#d3c2ac" stroke="#d3c2ac" stroke-width="1.51"/><path d="M-168,318L-177,390L-63,366Z" fill="#ddbc8e" stroke="#ddbc8e" stroke-width="1.51"/><path d="M59,1043L-38,1130L102,1120Z" fill="#cdbca4" stroke="#cdbca4" stroke-width="1.51"/><path d="M-127,839L-2,835L-57,718Z" fill="#b0a392" stroke="#b0a392" stroke-width="1.51"/><path d="M1661,284L1643,160L1603,197Z" fill="#e8e0d1" stroke="#e8e0d1" stroke-width="1.51"/><path d="M-134,623L-154,698L-68,626Z" fill="#9c9185" stroke="#9c9185" stroke-width="1.51"/><path d="M-177,390L-154,698L-134,623Z" fill="#b6a38d" stroke="#b6a38d" stroke-width="1.51"/><path d="M-24,-36L-129,85L2,97Z" fill="#c09556" stroke="#c09556" stroke-width="1.51"/><path d="M-146,8L-129,85L-24,-36Z" fill="#bb8f4f" stroke="#bb8f4f" stroke-width="1.51"/><path d="M1674,17L1579,-33L1564,80Z" fill="#cdbba3" stroke="#cdbba3" stroke-width="1.51"/><path d="M-74,894L-56,1014L30,934Z" fill="#cab79e" stroke="#cab79e" stroke-width="1.51"/><path d="M-154,698L-127,839L-57,718Z" fill="#a59a8c" stroke="#a59a8c" stroke-width="1.51"/><path d="M1699,874L1710,793L1566,791Z" fill="#b8d3ea" stroke="#b8d3ea" stroke-width="1.51"/><path d="M1442,1009L1551,990L1474,872Z" fill="#cee4f5" stroke="#cee4f5" stroke-width="1.51"/><path d="M1490,1104L1551,990L1442,1009Z" fill="#cee4f5" stroke="#cee4f5" stroke-width="1.51"/><path d="M1490,1104L1442,1009L1361,1082Z" fill="#cce3f4" stroke="#cce3f4" stroke-width="1.51"/><path d="M1608,1131L1490,1104L1298,1116Z" fill="#cee4f5" stroke="#cee4f5" stroke-width="1.51"/><path d="M1298,1116L1490,1104L1361,1082Z" fill="#c5dcf0" stroke="#c5dcf0" stroke-width="1.51"/><path d="M-103,1000L-56,1014L-74,894Z" fill="#cab79e" stroke="#cab79e" stroke-width="1.51"/><path d="M28,-123L-72,-102L-24,-36Z" fill="#b88c4b" stroke="#b88c4b" stroke-width="1.51"/><path d="M-127,839L-151,877L-74,894Z" fill="#c2b19b" stroke="#c2b19b" stroke-width="1.51"/><path d="M-154,698L-151,877L-127,839Z" fill="#b2a493" stroke="#b2a493" stroke-width="1.51"/><path d="M-177,390L-151,877L-154,698Z" fill="#998f85" stroke="#998f85" stroke-width="1.51"/><path d="M-136,-67L-146,8L-24,-36Z" fill="#b88c4b" stroke="#b88c4b" stroke-width="1.51"/><path d="M-129,85L-146,8L-168,318Z" fill="#cea56a" stroke="#cea56a" stroke-width="1.51"/><path d="M-168,318L-146,8L-177,390Z" fill="#dcb67f" stroke="#dcb67f" stroke-width="1.51"/><path d="M1679,424L1702,111L1661,284Z" fill="#e9e4da" stroke="#e9e4da" stroke-width="1.51"/><path d="M1661,284L1702,111L1643,160Z" fill="#e4daca" stroke="#e4daca" stroke-width="1.51"/><path d="M1643,160L1702,111L1564,80Z" fill="#dacdba" stroke="#dacdba" stroke-width="1.51"/><path d="M1655,-74L1570,-143L1579,-33Z" fill="#cab79e" stroke="#cab79e" stroke-width="1.51"/><path d="M1579,-33L1570,-143L1510,-81Z" fill="#cab79e" stroke="#cab79e" stroke-width="1.51"/><path d="M1510,-81L1570,-143L1361,-138Z" fill="#cab79e" stroke="#cab79e" stroke-width="1.51"/><path d="M1361,-138L1570,-143L883,-141Z" fill="#b0a291" stroke="#b0a291" stroke-width="1.51"/><path d="M-151,877L-103,1000L-74,894Z" fill="#cab79e" stroke="#cab79e" stroke-width="1.51"/><path d="M-56,1014L-38,1130L59,1043Z" fill="#cab79e" stroke="#cab79e" stroke-width="1.51"/><path d="M1699,874L1569,882L1700,978Z" fill="#cee4f5" stroke="#cee4f5" stroke-width="1.51"/><path d="M1699,874L1566,791L1569,882Z" fill="#c0d9ee" stroke="#c0d9ee" stroke-width="1.51"/><path d="M1651,664L1710,793L1657,485Z" fill="#9bbdd9" stroke="#9bbdd9" stroke-width="1.51"/><path d="M1679,424L1710,793L1702,111Z" fill="#e7edef" stroke="#e7edef" stroke-width="1.51"/><path d="M1702,111L1674,17L1564,80Z" fill="#d3c4ae" stroke="#d3c4ae" stroke-width="1.51"/><path d="M-72,-102L-136,-67L-24,-36Z" fill="#b88c4b" stroke="#b88c4b" stroke-width="1.51"/><path d="M1700,978L1569,882L1551,990Z" fill="#cee4f5" stroke="#cee4f5" stroke-width="1.51"/><path d="M-120,1109L-38,1130L-56,1014Z" fill="#cab79e" stroke="#cab79e" stroke-width="1.51"/><path d="M102,1120L-38,1130L351,1133Z" fill="#d6c7b3" stroke="#d6c7b3" stroke-width="1.51"/><path d="M1702,111L1655,-74L1674,17Z" fill="#ccbaa2" stroke="#ccbaa2" stroke-width="1.51"/><path d="M1674,17L1655,-74L1579,-33Z" fill="#cab79e" stroke="#cab79e" stroke-width="1.51"/><path d="M1608,1131L1700,978L1551,990Z" fill="#cee4f5" stroke="#cee4f5" stroke-width="1.51"/><path d="M1699,874L1700,978L1710,793Z" fill="#c9e0f2" stroke="#c9e0f2" stroke-width="1.51"/><path d="M1490,1104L1608,1131L1551,990Z" fill="#cee4f5" stroke="#cee4f5" stroke-width="1.51"/><path d="M1142,1136L1608,1131L1298,1116Z" fill="#bfd8ed" stroke="#bfd8ed" stroke-width="1.51"/><path d="M-103,1000L-120,1109L-56,1014Z" fill="#cab79e" stroke="#cab79e" stroke-width="1.51"/><path d="M-151,877L-120,1109L-103,1000Z" fill="#cab79e" stroke="#cab79e" stroke-width="1.51"/><path d="M1608,1131L1712,1098L1700,978Z" fill="#cee4f5" stroke="#cee4f5" stroke-width="1.51"/><path d="M1700,978L1712,1098L1710,793Z" fill="#cee4f5" stroke="#cee4f5" stroke-width="1.51"/></svg>